<?xml version="1.0" encoding="utf-8" standalone="no"?>
<!DOCTYPE svg PUBLIC "-//W3C//DTD SVG 1.1//EN"
  "http://www.w3.org/Graphics/SVG/1.1/DTD/svg11.dtd">
<svg xmlns:xlink="http://www.w3.org/1999/xlink" width="786.223125pt" height="342.068625pt" viewBox="0 0 786.223125 342.068625" xmlns="http://www.w3.org/2000/svg" version="1.1">
 <defs>
  <style type="text/css">*{stroke-linejoin: round; stroke-linecap: butt}</style>
 </defs>
 <g id="figure_1">
  <g id="patch_1">
   <path d="M 0 342.068625 
L 786.223125 342.068625 
L 786.223125 -0 
L 0 -0 
z
" style="fill: #ffffff"/>
  </g>
  <g id="axes_1">
   <g id="patch_2">
    <path d="M 41.223125 306.448 
L 362.613125 306.448 
L 362.613125 68.784 
L 41.223125 68.784 
z
" style="fill: #ffffff"/>
   </g>
   <g id="patch_3">
    <path d="M 55.831761 306.448 
L 107.862521 306.448 
L 107.862521 80.101333 
L 55.831761 80.101333 
z
" clip-path="url(#pfd27eb609e)" style="fill: #102a43"/>
   </g>
   <g id="patch_4">
    <path d="M 135.879084 306.448 
L 187.909844 306.448 
L 187.909844 138.316192 
L 135.879084 138.316192 
z
" clip-path="url(#pfd27eb609e)" style="fill: #2f6fb0"/>
   </g>
   <g id="patch_5">
    <path d="M 215.926406 306.448 
L 267.957166 306.448 
L 267.957166 253.691279 
L 215.926406 253.691279 
z
" clip-path="url(#pfd27eb609e)" style="fill: #82add7"/>
   </g>
   <g id="patch_6">
    <path d="M 295.973729 306.448 
L 348.004489 306.448 
L 348.004489 189.439662 
L 295.973729 189.439662 
z
" clip-path="url(#pfd27eb609e)" style="fill: #c99a2e"/>
   </g>
   <g id="matplotlib.axis_1">
    <g id="xtick_1">
     <g id="line2d_1">
      <path d="M 81.847141 306.448 
L 81.847141 68.784 
" clip-path="url(#pfd27eb609e)" style="fill: none; stroke: #e7ebf0; stroke-width: 0.7; stroke-linecap: square"/>
     </g>
     <g id="line2d_2">
      <defs>
       <path id="mc8a90993a9" d="M 0 0 
L 0 3.5 
" style="stroke: #374151; stroke-width: 0.8"/>
      </defs>
      <g>
       <use xlink:href="#mc8a90993a9" x="81.847141" y="306.448" style="fill: #374151; stroke: #374151; stroke-width: 0.8"/>
      </g>
     </g>
     <g id="text_1">
      <!-- 1990-1999 -->
      <g style="fill: #374151" transform="translate(58.797175 332.750468) rotate(-15) scale(0.09 -0.09)">
       <defs>
        <path id="DejaVuSans-31" d="M 794 531 
L 1825 531 
L 1825 4091 
L 703 3866 
L 703 4441 
L 1819 4666 
L 2450 4666 
L 2450 531 
L 3481 531 
L 3481 0 
L 794 0 
L 794 531 
z
" transform="scale(0.015625)"/>
        <path id="DejaVuSans-39" d="M 703 97 
L 703 672 
Q 941 559 1184 500 
Q 1428 441 1663 441 
Q 2288 441 2617 861 
Q 2947 1281 2994 2138 
Q 2813 1869 2534 1725 
Q 2256 1581 1919 1581 
Q 1219 1581 811 2004 
Q 403 2428 403 3163 
Q 403 3881 828 4315 
Q 1253 4750 1959 4750 
Q 2769 4750 3195 4129 
Q 3622 3509 3622 2328 
Q 3622 1225 3098 567 
Q 2575 -91 1691 -91 
Q 1453 -91 1209 -44 
Q 966 3 703 97 
z
M 1959 2075 
Q 2384 2075 2632 2365 
Q 2881 2656 2881 3163 
Q 2881 3666 2632 3958 
Q 2384 4250 1959 4250 
Q 1534 4250 1286 3958 
Q 1038 3666 1038 3163 
Q 1038 2656 1286 2365 
Q 1534 2075 1959 2075 
z
" transform="scale(0.015625)"/>
        <path id="DejaVuSans-30" d="M 2034 4250 
Q 1547 4250 1301 3770 
Q 1056 3291 1056 2328 
Q 1056 1369 1301 889 
Q 1547 409 2034 409 
Q 2525 409 2770 889 
Q 3016 1369 3016 2328 
Q 3016 3291 2770 3770 
Q 2525 4250 2034 4250 
z
M 2034 4750 
Q 2819 4750 3233 4129 
Q 3647 3509 3647 2328 
Q 3647 1150 3233 529 
Q 2819 -91 2034 -91 
Q 1250 -91 836 529 
Q 422 1150 422 2328 
Q 422 3509 836 4129 
Q 1250 4750 2034 4750 
z
" transform="scale(0.015625)"/>
        <path id="DejaVuSans-2d" d="M 313 2009 
L 1997 2009 
L 1997 1497 
L 313 1497 
L 313 2009 
z
" transform="scale(0.015625)"/>
       </defs>
       <use xlink:href="#DejaVuSans-31"/>
       <use xlink:href="#DejaVuSans-39" transform="translate(63.623047 0)"/>
       <use xlink:href="#DejaVuSans-39" transform="translate(127.246094 0)"/>
       <use xlink:href="#DejaVuSans-30" transform="translate(190.869141 0)"/>
       <use xlink:href="#DejaVuSans-2d" transform="translate(254.492188 0)"/>
       <use xlink:href="#DejaVuSans-31" transform="translate(290.576172 0)"/>
       <use xlink:href="#DejaVuSans-39" transform="translate(354.199219 0)"/>
       <use xlink:href="#DejaVuSans-39" transform="translate(417.822266 0)"/>
       <use xlink:href="#DejaVuSans-39" transform="translate(481.445312 0)"/>
      </g>
     </g>
    </g>
    <g id="xtick_2">
     <g id="line2d_3">
      <path d="M 161.894464 306.448 
L 161.894464 68.784 
" clip-path="url(#pfd27eb609e)" style="fill: none; stroke: #e7ebf0; stroke-width: 0.7; stroke-linecap: square"/>
     </g>
     <g id="line2d_4">
      <g>
       <use xlink:href="#mc8a90993a9" x="161.894464" y="306.448" style="fill: #374151; stroke: #374151; stroke-width: 0.8"/>
      </g>
     </g>
     <g id="text_2">
      <!-- 2000-2009 -->
      <g style="fill: #374151" transform="translate(138.844498 332.750468) rotate(-15) scale(0.09 -0.09)">
       <defs>
        <path id="DejaVuSans-32" d="M 1228 531 
L 3431 531 
L 3431 0 
L 469 0 
L 469 531 
Q 828 903 1448 1529 
Q 2069 2156 2228 2338 
Q 2531 2678 2651 2914 
Q 2772 3150 2772 3378 
Q 2772 3750 2511 3984 
Q 2250 4219 1831 4219 
Q 1534 4219 1204 4116 
Q 875 4013 500 3803 
L 500 4441 
Q 881 4594 1212 4672 
Q 1544 4750 1819 4750 
Q 2544 4750 2975 4387 
Q 3406 4025 3406 3419 
Q 3406 3131 3298 2873 
Q 3191 2616 2906 2266 
Q 2828 2175 2409 1742 
Q 1991 1309 1228 531 
z
" transform="scale(0.015625)"/>
       </defs>
       <use xlink:href="#DejaVuSans-32"/>
       <use xlink:href="#DejaVuSans-30" transform="translate(63.623047 0)"/>
       <use xlink:href="#DejaVuSans-30" transform="translate(127.246094 0)"/>
       <use xlink:href="#DejaVuSans-30" transform="translate(190.869141 0)"/>
       <use xlink:href="#DejaVuSans-2d" transform="translate(254.492188 0)"/>
       <use xlink:href="#DejaVuSans-32" transform="translate(290.576172 0)"/>
       <use xlink:href="#DejaVuSans-30" transform="translate(354.199219 0)"/>
       <use xlink:href="#DejaVuSans-30" transform="translate(417.822266 0)"/>
       <use xlink:href="#DejaVuSans-39" transform="translate(481.445312 0)"/>
      </g>
     </g>
    </g>
    <g id="xtick_3">
     <g id="line2d_5">
      <path d="M 241.941786 306.448 
L 241.941786 68.784 
" clip-path="url(#pfd27eb609e)" style="fill: none; stroke: #e7ebf0; stroke-width: 0.7; stroke-linecap: square"/>
     </g>
     <g id="line2d_6">
      <g>
       <use xlink:href="#mc8a90993a9" x="241.941786" y="306.448" style="fill: #374151; stroke: #374151; stroke-width: 0.8"/>
      </g>
     </g>
     <g id="text_3">
      <!-- 2010-2019 -->
      <g style="fill: #374151" transform="translate(218.89182 332.750468) rotate(-15) scale(0.09 -0.09)">
       <use xlink:href="#DejaVuSans-32"/>
       <use xlink:href="#DejaVuSans-30" transform="translate(63.623047 0)"/>
       <use xlink:href="#DejaVuSans-31" transform="translate(127.246094 0)"/>
       <use xlink:href="#DejaVuSans-30" transform="translate(190.869141 0)"/>
       <use xlink:href="#DejaVuSans-2d" transform="translate(254.492188 0)"/>
       <use xlink:href="#DejaVuSans-32" transform="translate(290.576172 0)"/>
       <use xlink:href="#DejaVuSans-30" transform="translate(354.199219 0)"/>
       <use xlink:href="#DejaVuSans-31" transform="translate(417.822266 0)"/>
       <use xlink:href="#DejaVuSans-39" transform="translate(481.445312 0)"/>
      </g>
     </g>
    </g>
    <g id="xtick_4">
     <g id="line2d_7">
      <path d="M 321.989109 306.448 
L 321.989109 68.784 
" clip-path="url(#pfd27eb609e)" style="fill: none; stroke: #e7ebf0; stroke-width: 0.7; stroke-linecap: square"/>
     </g>
     <g id="line2d_8">
      <g>
       <use xlink:href="#mc8a90993a9" x="321.989109" y="306.448" style="fill: #374151; stroke: #374151; stroke-width: 0.8"/>
      </g>
     </g>
     <g id="text_4">
      <!-- 2020-2024 -->
      <g style="fill: #374151" transform="translate(298.939143 332.750468) rotate(-15) scale(0.09 -0.09)">
       <defs>
        <path id="DejaVuSans-34" d="M 2419 4116 
L 825 1625 
L 2419 1625 
L 2419 4116 
z
M 2253 4666 
L 3047 4666 
L 3047 1625 
L 3713 1625 
L 3713 1100 
L 3047 1100 
L 3047 0 
L 2419 0 
L 2419 1100 
L 313 1100 
L 313 1709 
L 2253 4666 
z
" transform="scale(0.015625)"/>
       </defs>
       <use xlink:href="#DejaVuSans-32"/>
       <use xlink:href="#DejaVuSans-30" transform="translate(63.623047 0)"/>
       <use xlink:href="#DejaVuSans-32" transform="translate(127.246094 0)"/>
       <use xlink:href="#DejaVuSans-30" transform="translate(190.869141 0)"/>
       <use xlink:href="#DejaVuSans-2d" transform="translate(254.492188 0)"/>
       <use xlink:href="#DejaVuSans-32" transform="translate(290.576172 0)"/>
       <use xlink:href="#DejaVuSans-30" transform="translate(354.199219 0)"/>
       <use xlink:href="#DejaVuSans-32" transform="translate(417.822266 0)"/>
       <use xlink:href="#DejaVuSans-34" transform="translate(481.445312 0)"/>
      </g>
     </g>
    </g>
   </g>
   <g id="matplotlib.axis_2">
    <g id="ytick_1">
     <g id="line2d_9">
      <path d="M 41.223125 306.448 
L 362.613125 306.448 
" clip-path="url(#pfd27eb609e)" style="fill: none; stroke: #e7ebf0; stroke-width: 0.7; stroke-linecap: square"/>
     </g>
     <g id="line2d_10">
      <defs>
       <path id="mde8b66ad6b" d="M 0 0 
L -3.5 0 
" style="stroke: #374151; stroke-width: 0.8"/>
      </defs>
      <g>
       <use xlink:href="#mde8b66ad6b" x="41.223125" y="306.448" style="fill: #374151; stroke: #374151; stroke-width: 0.8"/>
      </g>
     </g>
     <g id="text_5">
      <!-- 0.0 -->
      <g style="fill: #374151" transform="translate(19.910313 309.867297) scale(0.09 -0.09)">
       <defs>
        <path id="DejaVuSans-2e" d="M 684 794 
L 1344 794 
L 1344 0 
L 684 0 
L 684 794 
z
" transform="scale(0.015625)"/>
       </defs>
       <use xlink:href="#DejaVuSans-30"/>
       <use xlink:href="#DejaVuSans-2e" transform="translate(63.623047 0)"/>
       <use xlink:href="#DejaVuSans-30" transform="translate(95.410156 0)"/>
      </g>
     </g>
    </g>
    <g id="ytick_2">
     <g id="line2d_11">
      <path d="M 41.223125 274.204642 
L 362.613125 274.204642 
" clip-path="url(#pfd27eb609e)" style="fill: none; stroke: #e7ebf0; stroke-width: 0.7; stroke-linecap: square"/>
     </g>
     <g id="line2d_12">
      <g>
       <use xlink:href="#mde8b66ad6b" x="41.223125" y="274.204642" style="fill: #374151; stroke: #374151; stroke-width: 0.8"/>
      </g>
     </g>
     <g id="text_6">
      <!-- 0.1 -->
      <g style="fill: #374151" transform="translate(19.910313 277.623939) scale(0.09 -0.09)">
       <use xlink:href="#DejaVuSans-30"/>
       <use xlink:href="#DejaVuSans-2e" transform="translate(63.623047 0)"/>
       <use xlink:href="#DejaVuSans-31" transform="translate(95.410156 0)"/>
      </g>
     </g>
    </g>
    <g id="ytick_3">
     <g id="line2d_13">
      <path d="M 41.223125 241.961285 
L 362.613125 241.961285 
" clip-path="url(#pfd27eb609e)" style="fill: none; stroke: #e7ebf0; stroke-width: 0.7; stroke-linecap: square"/>
     </g>
     <g id="line2d_14">
      <g>
       <use xlink:href="#mde8b66ad6b" x="41.223125" y="241.961285" style="fill: #374151; stroke: #374151; stroke-width: 0.8"/>
      </g>
     </g>
     <g id="text_7">
      <!-- 0.2 -->
      <g style="fill: #374151" transform="translate(19.910313 245.380582) scale(0.09 -0.09)">
       <use xlink:href="#DejaVuSans-30"/>
       <use xlink:href="#DejaVuSans-2e" transform="translate(63.623047 0)"/>
       <use xlink:href="#DejaVuSans-32" transform="translate(95.410156 0)"/>
      </g>
     </g>
    </g>
    <g id="ytick_4">
     <g id="line2d_15">
      <path d="M 41.223125 209.717927 
L 362.613125 209.717927 
" clip-path="url(#pfd27eb609e)" style="fill: none; stroke: #e7ebf0; stroke-width: 0.7; stroke-linecap: square"/>
     </g>
     <g id="line2d_16">
      <g>
       <use xlink:href="#mde8b66ad6b" x="41.223125" y="209.717927" style="fill: #374151; stroke: #374151; stroke-width: 0.8"/>
      </g>
     </g>
     <g id="text_8">
      <!-- 0.3 -->
      <g style="fill: #374151" transform="translate(19.910313 213.137224) scale(0.09 -0.09)">
       <defs>
        <path id="DejaVuSans-33" d="M 2597 2516 
Q 3050 2419 3304 2112 
Q 3559 1806 3559 1356 
Q 3559 666 3084 287 
Q 2609 -91 1734 -91 
Q 1441 -91 1130 -33 
Q 819 25 488 141 
L 488 750 
Q 750 597 1062 519 
Q 1375 441 1716 441 
Q 2309 441 2620 675 
Q 2931 909 2931 1356 
Q 2931 1769 2642 2001 
Q 2353 2234 1838 2234 
L 1294 2234 
L 1294 2753 
L 1863 2753 
Q 2328 2753 2575 2939 
Q 2822 3125 2822 3475 
Q 2822 3834 2567 4026 
Q 2313 4219 1838 4219 
Q 1578 4219 1281 4162 
Q 984 4106 628 3988 
L 628 4550 
Q 988 4650 1302 4700 
Q 1616 4750 1894 4750 
Q 2613 4750 3031 4423 
Q 3450 4097 3450 3541 
Q 3450 3153 3228 2886 
Q 3006 2619 2597 2516 
z
" transform="scale(0.015625)"/>
       </defs>
       <use xlink:href="#DejaVuSans-30"/>
       <use xlink:href="#DejaVuSans-2e" transform="translate(63.623047 0)"/>
       <use xlink:href="#DejaVuSans-33" transform="translate(95.410156 0)"/>
      </g>
     </g>
    </g>
    <g id="ytick_5">
     <g id="line2d_17">
      <path d="M 41.223125 177.474569 
L 362.613125 177.474569 
" clip-path="url(#pfd27eb609e)" style="fill: none; stroke: #e7ebf0; stroke-width: 0.7; stroke-linecap: square"/>
     </g>
     <g id="line2d_18">
      <g>
       <use xlink:href="#mde8b66ad6b" x="41.223125" y="177.474569" style="fill: #374151; stroke: #374151; stroke-width: 0.8"/>
      </g>
     </g>
     <g id="text_9">
      <!-- 0.4 -->
      <g style="fill: #374151" transform="translate(19.910313 180.893866) scale(0.09 -0.09)">
       <use xlink:href="#DejaVuSans-30"/>
       <use xlink:href="#DejaVuSans-2e" transform="translate(63.623047 0)"/>
       <use xlink:href="#DejaVuSans-34" transform="translate(95.410156 0)"/>
      </g>
     </g>
    </g>
    <g id="ytick_6">
     <g id="line2d_19">
      <path d="M 41.223125 145.231212 
L 362.613125 145.231212 
" clip-path="url(#pfd27eb609e)" style="fill: none; stroke: #e7ebf0; stroke-width: 0.7; stroke-linecap: square"/>
     </g>
     <g id="line2d_20">
      <g>
       <use xlink:href="#mde8b66ad6b" x="41.223125" y="145.231212" style="fill: #374151; stroke: #374151; stroke-width: 0.8"/>
      </g>
     </g>
     <g id="text_10">
      <!-- 0.5 -->
      <g style="fill: #374151" transform="translate(19.910313 148.650509) scale(0.09 -0.09)">
       <defs>
        <path id="DejaVuSans-35" d="M 691 4666 
L 3169 4666 
L 3169 4134 
L 1269 4134 
L 1269 2991 
Q 1406 3038 1543 3061 
Q 1681 3084 1819 3084 
Q 2600 3084 3056 2656 
Q 3513 2228 3513 1497 
Q 3513 744 3044 326 
Q 2575 -91 1722 -91 
Q 1428 -91 1123 -41 
Q 819 9 494 109 
L 494 744 
Q 775 591 1075 516 
Q 1375 441 1709 441 
Q 2250 441 2565 725 
Q 2881 1009 2881 1497 
Q 2881 1984 2565 2268 
Q 2250 2553 1709 2553 
Q 1456 2553 1204 2497 
Q 953 2441 691 2322 
L 691 4666 
z
" transform="scale(0.015625)"/>
       </defs>
       <use xlink:href="#DejaVuSans-30"/>
       <use xlink:href="#DejaVuSans-2e" transform="translate(63.623047 0)"/>
       <use xlink:href="#DejaVuSans-35" transform="translate(95.410156 0)"/>
      </g>
     </g>
    </g>
    <g id="ytick_7">
     <g id="line2d_21">
      <path d="M 41.223125 112.987854 
L 362.613125 112.987854 
" clip-path="url(#pfd27eb609e)" style="fill: none; stroke: #e7ebf0; stroke-width: 0.7; stroke-linecap: square"/>
     </g>
     <g id="line2d_22">
      <g>
       <use xlink:href="#mde8b66ad6b" x="41.223125" y="112.987854" style="fill: #374151; stroke: #374151; stroke-width: 0.8"/>
      </g>
     </g>
     <g id="text_11">
      <!-- 0.6 -->
      <g style="fill: #374151" transform="translate(19.910313 116.407151) scale(0.09 -0.09)">
       <defs>
        <path id="DejaVuSans-36" d="M 2113 2584 
Q 1688 2584 1439 2293 
Q 1191 2003 1191 1497 
Q 1191 994 1439 701 
Q 1688 409 2113 409 
Q 2538 409 2786 701 
Q 3034 994 3034 1497 
Q 3034 2003 2786 2293 
Q 2538 2584 2113 2584 
z
M 3366 4563 
L 3366 3988 
Q 3128 4100 2886 4159 
Q 2644 4219 2406 4219 
Q 1781 4219 1451 3797 
Q 1122 3375 1075 2522 
Q 1259 2794 1537 2939 
Q 1816 3084 2150 3084 
Q 2853 3084 3261 2657 
Q 3669 2231 3669 1497 
Q 3669 778 3244 343 
Q 2819 -91 2113 -91 
Q 1303 -91 875 529 
Q 447 1150 447 2328 
Q 447 3434 972 4092 
Q 1497 4750 2381 4750 
Q 2619 4750 2861 4703 
Q 3103 4656 3366 4563 
z
" transform="scale(0.015625)"/>
       </defs>
       <use xlink:href="#DejaVuSans-30"/>
       <use xlink:href="#DejaVuSans-2e" transform="translate(63.623047 0)"/>
       <use xlink:href="#DejaVuSans-36" transform="translate(95.410156 0)"/>
      </g>
     </g>
    </g>
    <g id="ytick_8">
     <g id="line2d_23">
      <path d="M 41.223125 80.744497 
L 362.613125 80.744497 
" clip-path="url(#pfd27eb609e)" style="fill: none; stroke: #e7ebf0; stroke-width: 0.7; stroke-linecap: square"/>
     </g>
     <g id="line2d_24">
      <g>
       <use xlink:href="#mde8b66ad6b" x="41.223125" y="80.744497" style="fill: #374151; stroke: #374151; stroke-width: 0.8"/>
      </g>
     </g>
     <g id="text_12">
      <!-- 0.7 -->
      <g style="fill: #374151" transform="translate(19.910313 84.163793) scale(0.09 -0.09)">
       <defs>
        <path id="DejaVuSans-37" d="M 525 4666 
L 3525 4666 
L 3525 4397 
L 1831 0 
L 1172 0 
L 2766 4134 
L 525 4134 
L 525 4666 
z
" transform="scale(0.015625)"/>
       </defs>
       <use xlink:href="#DejaVuSans-30"/>
       <use xlink:href="#DejaVuSans-2e" transform="translate(63.623047 0)"/>
       <use xlink:href="#DejaVuSans-37" transform="translate(95.410156 0)"/>
      </g>
     </g>
    </g>
    <g id="text_13">
     <!-- Mean monthly long-short return (%) -->
     <g transform="translate(14.038594 268.559047) rotate(-90) scale(0.09 -0.09)">
      <defs>
       <path id="DejaVuSans-4d" d="M 628 4666 
L 1569 4666 
L 2759 1491 
L 3956 4666 
L 4897 4666 
L 4897 0 
L 4281 0 
L 4281 4097 
L 3078 897 
L 2444 897 
L 1241 4097 
L 1241 0 
L 628 0 
L 628 4666 
z
" transform="scale(0.015625)"/>
       <path id="DejaVuSans-65" d="M 3597 1894 
L 3597 1613 
L 953 1613 
Q 991 1019 1311 708 
Q 1631 397 2203 397 
Q 2534 397 2845 478 
Q 3156 559 3463 722 
L 3463 178 
Q 3153 47 2828 -22 
Q 2503 -91 2169 -91 
Q 1331 -91 842 396 
Q 353 884 353 1716 
Q 353 2575 817 3079 
Q 1281 3584 2069 3584 
Q 2775 3584 3186 3129 
Q 3597 2675 3597 1894 
z
M 3022 2063 
Q 3016 2534 2758 2815 
Q 2500 3097 2075 3097 
Q 1594 3097 1305 2825 
Q 1016 2553 972 2059 
L 3022 2063 
z
" transform="scale(0.015625)"/>
       <path id="DejaVuSans-61" d="M 2194 1759 
Q 1497 1759 1228 1600 
Q 959 1441 959 1056 
Q 959 750 1161 570 
Q 1363 391 1709 391 
Q 2188 391 2477 730 
Q 2766 1069 2766 1631 
L 2766 1759 
L 2194 1759 
z
M 3341 1997 
L 3341 0 
L 2766 0 
L 2766 531 
Q 2569 213 2275 61 
Q 1981 -91 1556 -91 
Q 1019 -91 701 211 
Q 384 513 384 1019 
Q 384 1609 779 1909 
Q 1175 2209 1959 2209 
L 2766 2209 
L 2766 2266 
Q 2766 2663 2505 2880 
Q 2244 3097 1772 3097 
Q 1472 3097 1187 3025 
Q 903 2953 641 2809 
L 641 3341 
Q 956 3463 1253 3523 
Q 1550 3584 1831 3584 
Q 2591 3584 2966 3190 
Q 3341 2797 3341 1997 
z
" transform="scale(0.015625)"/>
       <path id="DejaVuSans-6e" d="M 3513 2113 
L 3513 0 
L 2938 0 
L 2938 2094 
Q 2938 2591 2744 2837 
Q 2550 3084 2163 3084 
Q 1697 3084 1428 2787 
Q 1159 2491 1159 1978 
L 1159 0 
L 581 0 
L 581 3500 
L 1159 3500 
L 1159 2956 
Q 1366 3272 1645 3428 
Q 1925 3584 2291 3584 
Q 2894 3584 3203 3211 
Q 3513 2838 3513 2113 
z
" transform="scale(0.015625)"/>
       <path id="DejaVuSans-20" transform="scale(0.015625)"/>
       <path id="DejaVuSans-6d" d="M 3328 2828 
Q 3544 3216 3844 3400 
Q 4144 3584 4550 3584 
Q 5097 3584 5394 3201 
Q 5691 2819 5691 2113 
L 5691 0 
L 5113 0 
L 5113 2094 
Q 5113 2597 4934 2840 
Q 4756 3084 4391 3084 
Q 3944 3084 3684 2787 
Q 3425 2491 3425 1978 
L 3425 0 
L 2847 0 
L 2847 2094 
Q 2847 2600 2669 2842 
Q 2491 3084 2119 3084 
Q 1678 3084 1418 2786 
Q 1159 2488 1159 1978 
L 1159 0 
L 581 0 
L 581 3500 
L 1159 3500 
L 1159 2956 
Q 1356 3278 1631 3431 
Q 1906 3584 2284 3584 
Q 2666 3584 2933 3390 
Q 3200 3197 3328 2828 
z
" transform="scale(0.015625)"/>
       <path id="DejaVuSans-6f" d="M 1959 3097 
Q 1497 3097 1228 2736 
Q 959 2375 959 1747 
Q 959 1119 1226 758 
Q 1494 397 1959 397 
Q 2419 397 2687 759 
Q 2956 1122 2956 1747 
Q 2956 2369 2687 2733 
Q 2419 3097 1959 3097 
z
M 1959 3584 
Q 2709 3584 3137 3096 
Q 3566 2609 3566 1747 
Q 3566 888 3137 398 
Q 2709 -91 1959 -91 
Q 1206 -91 779 398 
Q 353 888 353 1747 
Q 353 2609 779 3096 
Q 1206 3584 1959 3584 
z
" transform="scale(0.015625)"/>
       <path id="DejaVuSans-74" d="M 1172 4494 
L 1172 3500 
L 2356 3500 
L 2356 3053 
L 1172 3053 
L 1172 1153 
Q 1172 725 1289 603 
Q 1406 481 1766 481 
L 2356 481 
L 2356 0 
L 1766 0 
Q 1100 0 847 248 
Q 594 497 594 1153 
L 594 3053 
L 172 3053 
L 172 3500 
L 594 3500 
L 594 4494 
L 1172 4494 
z
" transform="scale(0.015625)"/>
       <path id="DejaVuSans-68" d="M 3513 2113 
L 3513 0 
L 2938 0 
L 2938 2094 
Q 2938 2591 2744 2837 
Q 2550 3084 2163 3084 
Q 1697 3084 1428 2787 
Q 1159 2491 1159 1978 
L 1159 0 
L 581 0 
L 581 4863 
L 1159 4863 
L 1159 2956 
Q 1366 3272 1645 3428 
Q 1925 3584 2291 3584 
Q 2894 3584 3203 3211 
Q 3513 2838 3513 2113 
z
" transform="scale(0.015625)"/>
       <path id="DejaVuSans-6c" d="M 603 4863 
L 1178 4863 
L 1178 0 
L 603 0 
L 603 4863 
z
" transform="scale(0.015625)"/>
       <path id="DejaVuSans-79" d="M 2059 -325 
Q 1816 -950 1584 -1140 
Q 1353 -1331 966 -1331 
L 506 -1331 
L 506 -850 
L 844 -850 
Q 1081 -850 1212 -737 
Q 1344 -625 1503 -206 
L 1606 56 
L 191 3500 
L 800 3500 
L 1894 763 
L 2988 3500 
L 3597 3500 
L 2059 -325 
z
" transform="scale(0.015625)"/>
       <path id="DejaVuSans-67" d="M 2906 1791 
Q 2906 2416 2648 2759 
Q 2391 3103 1925 3103 
Q 1463 3103 1205 2759 
Q 947 2416 947 1791 
Q 947 1169 1205 825 
Q 1463 481 1925 481 
Q 2391 481 2648 825 
Q 2906 1169 2906 1791 
z
M 3481 434 
Q 3481 -459 3084 -895 
Q 2688 -1331 1869 -1331 
Q 1566 -1331 1297 -1286 
Q 1028 -1241 775 -1147 
L 775 -588 
Q 1028 -725 1275 -790 
Q 1522 -856 1778 -856 
Q 2344 -856 2625 -561 
Q 2906 -266 2906 331 
L 2906 616 
Q 2728 306 2450 153 
Q 2172 0 1784 0 
Q 1141 0 747 490 
Q 353 981 353 1791 
Q 353 2603 747 3093 
Q 1141 3584 1784 3584 
Q 2172 3584 2450 3431 
Q 2728 3278 2906 2969 
L 2906 3500 
L 3481 3500 
L 3481 434 
z
" transform="scale(0.015625)"/>
       <path id="DejaVuSans-73" d="M 2834 3397 
L 2834 2853 
Q 2591 2978 2328 3040 
Q 2066 3103 1784 3103 
Q 1356 3103 1142 2972 
Q 928 2841 928 2578 
Q 928 2378 1081 2264 
Q 1234 2150 1697 2047 
L 1894 2003 
Q 2506 1872 2764 1633 
Q 3022 1394 3022 966 
Q 3022 478 2636 193 
Q 2250 -91 1575 -91 
Q 1294 -91 989 -36 
Q 684 19 347 128 
L 347 722 
Q 666 556 975 473 
Q 1284 391 1588 391 
Q 1994 391 2212 530 
Q 2431 669 2431 922 
Q 2431 1156 2273 1281 
Q 2116 1406 1581 1522 
L 1381 1569 
Q 847 1681 609 1914 
Q 372 2147 372 2553 
Q 372 3047 722 3315 
Q 1072 3584 1716 3584 
Q 2034 3584 2315 3537 
Q 2597 3491 2834 3397 
z
" transform="scale(0.015625)"/>
       <path id="DejaVuSans-72" d="M 2631 2963 
Q 2534 3019 2420 3045 
Q 2306 3072 2169 3072 
Q 1681 3072 1420 2755 
Q 1159 2438 1159 1844 
L 1159 0 
L 581 0 
L 581 3500 
L 1159 3500 
L 1159 2956 
Q 1341 3275 1631 3429 
Q 1922 3584 2338 3584 
Q 2397 3584 2469 3576 
Q 2541 3569 2628 3553 
L 2631 2963 
z
" transform="scale(0.015625)"/>
       <path id="DejaVuSans-75" d="M 544 1381 
L 544 3500 
L 1119 3500 
L 1119 1403 
Q 1119 906 1312 657 
Q 1506 409 1894 409 
Q 2359 409 2629 706 
Q 2900 1003 2900 1516 
L 2900 3500 
L 3475 3500 
L 3475 0 
L 2900 0 
L 2900 538 
Q 2691 219 2414 64 
Q 2138 -91 1772 -91 
Q 1169 -91 856 284 
Q 544 659 544 1381 
z
M 1991 3584 
L 1991 3584 
z
" transform="scale(0.015625)"/>
       <path id="DejaVuSans-28" d="M 1984 4856 
Q 1566 4138 1362 3434 
Q 1159 2731 1159 2009 
Q 1159 1288 1364 580 
Q 1569 -128 1984 -844 
L 1484 -844 
Q 1016 -109 783 600 
Q 550 1309 550 2009 
Q 550 2706 781 3412 
Q 1013 4119 1484 4856 
L 1984 4856 
z
" transform="scale(0.015625)"/>
       <path id="DejaVuSans-25" d="M 4653 2053 
Q 4381 2053 4226 1822 
Q 4072 1591 4072 1178 
Q 4072 772 4226 539 
Q 4381 306 4653 306 
Q 4919 306 5073 539 
Q 5228 772 5228 1178 
Q 5228 1588 5073 1820 
Q 4919 2053 4653 2053 
z
M 4653 2450 
Q 5147 2450 5437 2106 
Q 5728 1763 5728 1178 
Q 5728 594 5436 251 
Q 5144 -91 4653 -91 
Q 4153 -91 3862 251 
Q 3572 594 3572 1178 
Q 3572 1766 3864 2108 
Q 4156 2450 4653 2450 
z
M 1428 4353 
Q 1159 4353 1004 4120 
Q 850 3888 850 3481 
Q 850 3069 1003 2837 
Q 1156 2606 1428 2606 
Q 1700 2606 1854 2837 
Q 2009 3069 2009 3481 
Q 2009 3884 1853 4118 
Q 1697 4353 1428 4353 
z
M 4250 4750 
L 4750 4750 
L 1831 -91 
L 1331 -91 
L 4250 4750 
z
M 1428 4750 
Q 1922 4750 2215 4408 
Q 2509 4066 2509 3481 
Q 2509 2891 2217 2550 
Q 1925 2209 1428 2209 
Q 931 2209 642 2551 
Q 353 2894 353 3481 
Q 353 4063 643 4406 
Q 934 4750 1428 4750 
z
" transform="scale(0.015625)"/>
       <path id="DejaVuSans-29" d="M 513 4856 
L 1013 4856 
Q 1481 4119 1714 3412 
Q 1947 2706 1947 2009 
Q 1947 1309 1714 600 
Q 1481 -109 1013 -844 
L 513 -844 
Q 928 -128 1133 580 
Q 1338 1288 1338 2009 
Q 1338 2731 1133 3434 
Q 928 4138 513 4856 
z
" transform="scale(0.015625)"/>
      </defs>
      <use xlink:href="#DejaVuSans-4d"/>
      <use xlink:href="#DejaVuSans-65" transform="translate(86.279297 0)"/>
      <use xlink:href="#DejaVuSans-61" transform="translate(147.802734 0)"/>
      <use xlink:href="#DejaVuSans-6e" transform="translate(209.082031 0)"/>
      <use xlink:href="#DejaVuSans-20" transform="translate(272.460938 0)"/>
      <use xlink:href="#DejaVuSans-6d" transform="translate(304.248047 0)"/>
      <use xlink:href="#DejaVuSans-6f" transform="translate(401.660156 0)"/>
      <use xlink:href="#DejaVuSans-6e" transform="translate(462.841797 0)"/>
      <use xlink:href="#DejaVuSans-74" transform="translate(526.220703 0)"/>
      <use xlink:href="#DejaVuSans-68" transform="translate(565.429688 0)"/>
      <use xlink:href="#DejaVuSans-6c" transform="translate(628.808594 0)"/>
      <use xlink:href="#DejaVuSans-79" transform="translate(656.591797 0)"/>
      <use xlink:href="#DejaVuSans-20" transform="translate(715.771484 0)"/>
      <use xlink:href="#DejaVuSans-6c" transform="translate(747.558594 0)"/>
      <use xlink:href="#DejaVuSans-6f" transform="translate(775.341797 0)"/>
      <use xlink:href="#DejaVuSans-6e" transform="translate(836.523438 0)"/>
      <use xlink:href="#DejaVuSans-67" transform="translate(899.902344 0)"/>
      <use xlink:href="#DejaVuSans-2d" transform="translate(963.378906 0)"/>
      <use xlink:href="#DejaVuSans-73" transform="translate(999.462891 0)"/>
      <use xlink:href="#DejaVuSans-68" transform="translate(1051.5625 0)"/>
      <use xlink:href="#DejaVuSans-6f" transform="translate(1114.941406 0)"/>
      <use xlink:href="#DejaVuSans-72" transform="translate(1176.123047 0)"/>
      <use xlink:href="#DejaVuSans-74" transform="translate(1217.236328 0)"/>
      <use xlink:href="#DejaVuSans-20" transform="translate(1256.445312 0)"/>
      <use xlink:href="#DejaVuSans-72" transform="translate(1288.232422 0)"/>
      <use xlink:href="#DejaVuSans-65" transform="translate(1327.095703 0)"/>
      <use xlink:href="#DejaVuSans-74" transform="translate(1388.619141 0)"/>
      <use xlink:href="#DejaVuSans-75" transform="translate(1427.828125 0)"/>
      <use xlink:href="#DejaVuSans-72" transform="translate(1491.207031 0)"/>
      <use xlink:href="#DejaVuSans-6e" transform="translate(1530.570312 0)"/>
      <use xlink:href="#DejaVuSans-20" transform="translate(1593.949219 0)"/>
      <use xlink:href="#DejaVuSans-28" transform="translate(1625.736328 0)"/>
      <use xlink:href="#DejaVuSans-25" transform="translate(1664.75 0)"/>
      <use xlink:href="#DejaVuSans-29" transform="translate(1759.769531 0)"/>
     </g>
    </g>
   </g>
   <g id="patch_7">
    <path d="M 41.223125 306.448 
L 41.223125 68.784 
" style="fill: none; stroke: #8a97a6; stroke-width: 0.8; stroke-linejoin: miter; stroke-linecap: square"/>
   </g>
   <g id="patch_8">
    <path d="M 41.223125 306.448 
L 362.613125 306.448 
" style="fill: none; stroke: #8a97a6; stroke-width: 0.8; stroke-linejoin: miter; stroke-linecap: square"/>
   </g>
   <g id="text_14">
    <!-- Public gross composite through time -->
    <g style="fill: #102a43" transform="translate(77.194063 62.784) scale(0.12 -0.12)">
     <defs>
      <path id="DejaVuSans-Bold-50" d="M 588 4666 
L 2584 4666 
Q 3475 4666 3951 4270 
Q 4428 3875 4428 3144 
Q 4428 2409 3951 2014 
Q 3475 1619 2584 1619 
L 1791 1619 
L 1791 0 
L 588 0 
L 588 4666 
z
M 1791 3794 
L 1791 2491 
L 2456 2491 
Q 2806 2491 2997 2661 
Q 3188 2831 3188 3144 
Q 3188 3456 2997 3625 
Q 2806 3794 2456 3794 
L 1791 3794 
z
" transform="scale(0.015625)"/>
      <path id="DejaVuSans-Bold-75" d="M 500 1363 
L 500 3500 
L 1625 3500 
L 1625 3150 
Q 1625 2866 1622 2436 
Q 1619 2006 1619 1863 
Q 1619 1441 1641 1255 
Q 1663 1069 1716 984 
Q 1784 875 1895 815 
Q 2006 756 2150 756 
Q 2500 756 2700 1025 
Q 2900 1294 2900 1772 
L 2900 3500 
L 4019 3500 
L 4019 0 
L 2900 0 
L 2900 506 
Q 2647 200 2364 54 
Q 2081 -91 1741 -91 
Q 1134 -91 817 281 
Q 500 653 500 1363 
z
" transform="scale(0.015625)"/>
      <path id="DejaVuSans-Bold-62" d="M 2400 722 
Q 2759 722 2948 984 
Q 3138 1247 3138 1747 
Q 3138 2247 2948 2509 
Q 2759 2772 2400 2772 
Q 2041 2772 1848 2508 
Q 1656 2244 1656 1747 
Q 1656 1250 1848 986 
Q 2041 722 2400 722 
z
M 1656 2988 
Q 1888 3294 2169 3439 
Q 2450 3584 2816 3584 
Q 3463 3584 3878 3070 
Q 4294 2556 4294 1747 
Q 4294 938 3878 423 
Q 3463 -91 2816 -91 
Q 2450 -91 2169 54 
Q 1888 200 1656 506 
L 1656 0 
L 538 0 
L 538 4863 
L 1656 4863 
L 1656 2988 
z
" transform="scale(0.015625)"/>
      <path id="DejaVuSans-Bold-6c" d="M 538 4863 
L 1656 4863 
L 1656 0 
L 538 0 
L 538 4863 
z
" transform="scale(0.015625)"/>
      <path id="DejaVuSans-Bold-69" d="M 538 3500 
L 1656 3500 
L 1656 0 
L 538 0 
L 538 3500 
z
M 538 4863 
L 1656 4863 
L 1656 3950 
L 538 3950 
L 538 4863 
z
" transform="scale(0.015625)"/>
      <path id="DejaVuSans-Bold-63" d="M 3366 3391 
L 3366 2478 
Q 3138 2634 2908 2709 
Q 2678 2784 2431 2784 
Q 1963 2784 1702 2511 
Q 1441 2238 1441 1747 
Q 1441 1256 1702 982 
Q 1963 709 2431 709 
Q 2694 709 2930 787 
Q 3166 866 3366 1019 
L 3366 103 
Q 3103 6 2833 -42 
Q 2563 -91 2291 -91 
Q 1344 -91 809 395 
Q 275 881 275 1747 
Q 275 2613 809 3098 
Q 1344 3584 2291 3584 
Q 2566 3584 2833 3536 
Q 3100 3488 3366 3391 
z
" transform="scale(0.015625)"/>
      <path id="DejaVuSans-Bold-20" transform="scale(0.015625)"/>
      <path id="DejaVuSans-Bold-67" d="M 2919 594 
Q 2688 288 2409 144 
Q 2131 0 1766 0 
Q 1125 0 706 504 
Q 288 1009 288 1791 
Q 288 2575 706 3076 
Q 1125 3578 1766 3578 
Q 2131 3578 2409 3434 
Q 2688 3291 2919 2981 
L 2919 3500 
L 4044 3500 
L 4044 353 
Q 4044 -491 3511 -936 
Q 2978 -1381 1966 -1381 
Q 1638 -1381 1331 -1331 
Q 1025 -1281 716 -1178 
L 716 -306 
Q 1009 -475 1290 -558 
Q 1572 -641 1856 -641 
Q 2406 -641 2662 -400 
Q 2919 -159 2919 353 
L 2919 594 
z
M 2181 2772 
Q 1834 2772 1640 2515 
Q 1447 2259 1447 1791 
Q 1447 1309 1634 1061 
Q 1822 813 2181 813 
Q 2531 813 2725 1069 
Q 2919 1325 2919 1791 
Q 2919 2259 2725 2515 
Q 2531 2772 2181 2772 
z
" transform="scale(0.015625)"/>
      <path id="DejaVuSans-Bold-72" d="M 3138 2547 
Q 2991 2616 2845 2648 
Q 2700 2681 2553 2681 
Q 2122 2681 1889 2404 
Q 1656 2128 1656 1613 
L 1656 0 
L 538 0 
L 538 3500 
L 1656 3500 
L 1656 2925 
Q 1872 3269 2151 3426 
Q 2431 3584 2822 3584 
Q 2878 3584 2943 3579 
Q 3009 3575 3134 3559 
L 3138 2547 
z
" transform="scale(0.015625)"/>
      <path id="DejaVuSans-Bold-6f" d="M 2203 2784 
Q 1831 2784 1636 2517 
Q 1441 2250 1441 1747 
Q 1441 1244 1636 976 
Q 1831 709 2203 709 
Q 2569 709 2762 976 
Q 2956 1244 2956 1747 
Q 2956 2250 2762 2517 
Q 2569 2784 2203 2784 
z
M 2203 3584 
Q 3106 3584 3614 3096 
Q 4122 2609 4122 1747 
Q 4122 884 3614 396 
Q 3106 -91 2203 -91 
Q 1297 -91 786 396 
Q 275 884 275 1747 
Q 275 2609 786 3096 
Q 1297 3584 2203 3584 
z
" transform="scale(0.015625)"/>
      <path id="DejaVuSans-Bold-73" d="M 3272 3391 
L 3272 2541 
Q 2913 2691 2578 2766 
Q 2244 2841 1947 2841 
Q 1628 2841 1473 2761 
Q 1319 2681 1319 2516 
Q 1319 2381 1436 2309 
Q 1553 2238 1856 2203 
L 2053 2175 
Q 2913 2066 3209 1816 
Q 3506 1566 3506 1031 
Q 3506 472 3093 190 
Q 2681 -91 1863 -91 
Q 1516 -91 1145 -36 
Q 775 19 384 128 
L 384 978 
Q 719 816 1070 734 
Q 1422 653 1784 653 
Q 2113 653 2278 743 
Q 2444 834 2444 1013 
Q 2444 1163 2330 1236 
Q 2216 1309 1875 1350 
L 1678 1375 
Q 931 1469 631 1722 
Q 331 1975 331 2491 
Q 331 3047 712 3315 
Q 1094 3584 1881 3584 
Q 2191 3584 2531 3537 
Q 2872 3491 3272 3391 
z
" transform="scale(0.015625)"/>
      <path id="DejaVuSans-Bold-6d" d="M 3781 2919 
Q 3994 3244 4286 3414 
Q 4578 3584 4928 3584 
Q 5531 3584 5847 3212 
Q 6163 2841 6163 2131 
L 6163 0 
L 5038 0 
L 5038 1825 
Q 5041 1866 5042 1909 
Q 5044 1953 5044 2034 
Q 5044 2406 4934 2573 
Q 4825 2741 4581 2741 
Q 4263 2741 4089 2478 
Q 3916 2216 3909 1719 
L 3909 0 
L 2784 0 
L 2784 1825 
Q 2784 2406 2684 2573 
Q 2584 2741 2328 2741 
Q 2006 2741 1831 2477 
Q 1656 2213 1656 1722 
L 1656 0 
L 531 0 
L 531 3500 
L 1656 3500 
L 1656 2988 
Q 1863 3284 2130 3434 
Q 2397 3584 2719 3584 
Q 3081 3584 3359 3409 
Q 3638 3234 3781 2919 
z
" transform="scale(0.015625)"/>
      <path id="DejaVuSans-Bold-70" d="M 1656 506 
L 1656 -1331 
L 538 -1331 
L 538 3500 
L 1656 3500 
L 1656 2988 
Q 1888 3294 2169 3439 
Q 2450 3584 2816 3584 
Q 3463 3584 3878 3070 
Q 4294 2556 4294 1747 
Q 4294 938 3878 423 
Q 3463 -91 2816 -91 
Q 2450 -91 2169 54 
Q 1888 200 1656 506 
z
M 2400 2772 
Q 2041 2772 1848 2508 
Q 1656 2244 1656 1747 
Q 1656 1250 1848 986 
Q 2041 722 2400 722 
Q 2759 722 2948 984 
Q 3138 1247 3138 1747 
Q 3138 2247 2948 2509 
Q 2759 2772 2400 2772 
z
" transform="scale(0.015625)"/>
      <path id="DejaVuSans-Bold-74" d="M 1759 4494 
L 1759 3500 
L 2913 3500 
L 2913 2700 
L 1759 2700 
L 1759 1216 
Q 1759 972 1856 886 
Q 1953 800 2241 800 
L 2816 800 
L 2816 0 
L 1856 0 
Q 1194 0 917 276 
Q 641 553 641 1216 
L 641 2700 
L 84 2700 
L 84 3500 
L 641 3500 
L 641 4494 
L 1759 4494 
z
" transform="scale(0.015625)"/>
      <path id="DejaVuSans-Bold-65" d="M 4031 1759 
L 4031 1441 
L 1416 1441 
Q 1456 1047 1700 850 
Q 1944 653 2381 653 
Q 2734 653 3104 758 
Q 3475 863 3866 1075 
L 3866 213 
Q 3469 63 3072 -14 
Q 2675 -91 2278 -91 
Q 1328 -91 801 392 
Q 275 875 275 1747 
Q 275 2603 792 3093 
Q 1309 3584 2216 3584 
Q 3041 3584 3536 3087 
Q 4031 2591 4031 1759 
z
M 2881 2131 
Q 2881 2450 2695 2645 
Q 2509 2841 2209 2841 
Q 1884 2841 1681 2658 
Q 1478 2475 1428 2131 
L 2881 2131 
z
" transform="scale(0.015625)"/>
      <path id="DejaVuSans-Bold-68" d="M 4056 2131 
L 4056 0 
L 2931 0 
L 2931 347 
L 2931 1625 
Q 2931 2084 2911 2256 
Q 2891 2428 2841 2509 
Q 2775 2619 2662 2680 
Q 2550 2741 2406 2741 
Q 2056 2741 1856 2470 
Q 1656 2200 1656 1722 
L 1656 0 
L 538 0 
L 538 4863 
L 1656 4863 
L 1656 2988 
Q 1909 3294 2193 3439 
Q 2478 3584 2822 3584 
Q 3428 3584 3742 3212 
Q 4056 2841 4056 2131 
z
" transform="scale(0.015625)"/>
     </defs>
     <use xlink:href="#DejaVuSans-Bold-50"/>
     <use xlink:href="#DejaVuSans-Bold-75" transform="translate(73.291016 0)"/>
     <use xlink:href="#DejaVuSans-Bold-62" transform="translate(144.482422 0)"/>
     <use xlink:href="#DejaVuSans-Bold-6c" transform="translate(216.064453 0)"/>
     <use xlink:href="#DejaVuSans-Bold-69" transform="translate(250.341797 0)"/>
     <use xlink:href="#DejaVuSans-Bold-63" transform="translate(284.619141 0)"/>
     <use xlink:href="#DejaVuSans-Bold-20" transform="translate(343.896484 0)"/>
     <use xlink:href="#DejaVuSans-Bold-67" transform="translate(378.710938 0)"/>
     <use xlink:href="#DejaVuSans-Bold-72" transform="translate(450.292969 0)"/>
     <use xlink:href="#DejaVuSans-Bold-6f" transform="translate(499.609375 0)"/>
     <use xlink:href="#DejaVuSans-Bold-73" transform="translate(568.310547 0)"/>
     <use xlink:href="#DejaVuSans-Bold-73" transform="translate(627.832031 0)"/>
     <use xlink:href="#DejaVuSans-Bold-20" transform="translate(687.353516 0)"/>
     <use xlink:href="#DejaVuSans-Bold-63" transform="translate(722.167969 0)"/>
     <use xlink:href="#DejaVuSans-Bold-6f" transform="translate(781.445312 0)"/>
     <use xlink:href="#DejaVuSans-Bold-6d" transform="translate(850.146484 0)"/>
     <use xlink:href="#DejaVuSans-Bold-70" transform="translate(954.345703 0)"/>
     <use xlink:href="#DejaVuSans-Bold-6f" transform="translate(1025.927734 0)"/>
     <use xlink:href="#DejaVuSans-Bold-73" transform="translate(1094.628906 0)"/>
     <use xlink:href="#DejaVuSans-Bold-69" transform="translate(1154.150391 0)"/>
     <use xlink:href="#DejaVuSans-Bold-74" transform="translate(1188.427734 0)"/>
     <use xlink:href="#DejaVuSans-Bold-65" transform="translate(1236.230469 0)"/>
     <use xlink:href="#DejaVuSans-Bold-20" transform="translate(1304.052734 0)"/>
     <use xlink:href="#DejaVuSans-Bold-74" transform="translate(1338.867188 0)"/>
     <use xlink:href="#DejaVuSans-Bold-68" transform="translate(1386.669922 0)"/>
     <use xlink:href="#DejaVuSans-Bold-72" transform="translate(1457.861328 0)"/>
     <use xlink:href="#DejaVuSans-Bold-6f" transform="translate(1507.177734 0)"/>
     <use xlink:href="#DejaVuSans-Bold-75" transform="translate(1575.878906 0)"/>
     <use xlink:href="#DejaVuSans-Bold-67" transform="translate(1647.070312 0)"/>
     <use xlink:href="#DejaVuSans-Bold-68" transform="translate(1718.652344 0)"/>
     <use xlink:href="#DejaVuSans-Bold-20" transform="translate(1789.84375 0)"/>
     <use xlink:href="#DejaVuSans-Bold-74" transform="translate(1824.658203 0)"/>
     <use xlink:href="#DejaVuSans-Bold-69" transform="translate(1872.460938 0)"/>
     <use xlink:href="#DejaVuSans-Bold-6d" transform="translate(1906.738281 0)"/>
     <use xlink:href="#DejaVuSans-Bold-65" transform="translate(2010.9375 0)"/>
    </g>
   </g>
  </g>
  <g id="axes_2">
   <g id="patch_9">
    <path d="M 457.633125 306.448 
L 779.023125 306.448 
L 779.023125 68.784 
L 457.633125 68.784 
z
" style="fill: #ffffff"/>
   </g>
   <g id="patch_10">
    <path d="M 457.633125 79.586909 
L 735.44167 79.586909 
L 735.44167 105.005519 
L 457.633125 105.005519 
z
" clip-path="url(#p1e6885d704)" style="fill: #102a43"/>
   </g>
   <g id="patch_11">
    <path d="M 457.633125 111.360171 
L 763.718839 111.360171 
L 763.718839 136.778781 
L 457.633125 136.778781 
z
" clip-path="url(#p1e6885d704)" style="fill: #2f6fb0"/>
   </g>
   <g id="patch_12">
    <path d="M 457.633125 143.133433 
L 691.92215 143.133433 
L 691.92215 168.552043 
L 457.633125 168.552043 
z
" clip-path="url(#p1e6885d704)" style="fill: #82add7"/>
   </g>
   <g id="patch_13">
    <path d="M 457.633125 174.906695 
L 624.516652 174.906695 
L 624.516652 200.325305 
L 457.633125 200.325305 
z
" clip-path="url(#p1e6885d704)" style="fill: #6f8fb3"/>
   </g>
   <g id="patch_14">
    <path d="M 457.633125 206.679957 
L 621.600999 206.679957 
L 621.600999 232.098567 
L 457.633125 232.098567 
z
" clip-path="url(#p1e6885d704)" style="fill: #c99a2e"/>
   </g>
   <g id="patch_15">
    <path d="M 457.633125 238.453219 
L 611.126137 238.453219 
L 611.126137 263.871829 
L 457.633125 263.871829 
z
" clip-path="url(#p1e6885d704)" style="fill: #8b9aaa"/>
   </g>
   <g id="patch_16">
    <path d="M 457.633125 270.226481 
L 643.230502 270.226481 
L 643.230502 295.645091 
L 457.633125 295.645091 
z
" clip-path="url(#p1e6885d704)" style="fill: #a9b5c2"/>
   </g>
   <g id="matplotlib.axis_3">
    <g id="xtick_5">
     <g id="line2d_25">
      <path d="M 457.633125 306.448 
L 457.633125 68.784 
" clip-path="url(#p1e6885d704)" style="fill: none; stroke: #e7ebf0; stroke-width: 0.7; stroke-linecap: square"/>
     </g>
     <g id="line2d_26">
      <g>
       <use xlink:href="#mc8a90993a9" x="457.633125" y="306.448" style="fill: #374151; stroke: #374151; stroke-width: 0.8"/>
      </g>
     </g>
     <g id="text_15">
      <!-- 0.0 -->
      <g style="fill: #374151" transform="translate(450.476719 320.286594) scale(0.09 -0.09)">
       <use xlink:href="#DejaVuSans-30"/>
       <use xlink:href="#DejaVuSans-2e" transform="translate(63.623047 0)"/>
       <use xlink:href="#DejaVuSans-30" transform="translate(95.410156 0)"/>
      </g>
     </g>
    </g>
    <g id="xtick_6">
     <g id="line2d_27">
      <path d="M 519.338447 306.448 
L 519.338447 68.784 
" clip-path="url(#p1e6885d704)" style="fill: none; stroke: #e7ebf0; stroke-width: 0.7; stroke-linecap: square"/>
     </g>
     <g id="line2d_28">
      <g>
       <use xlink:href="#mc8a90993a9" x="519.338447" y="306.448" style="fill: #374151; stroke: #374151; stroke-width: 0.8"/>
      </g>
     </g>
     <g id="text_16">
      <!-- 0.1 -->
      <g style="fill: #374151" transform="translate(512.182041 320.286594) scale(0.09 -0.09)">
       <use xlink:href="#DejaVuSans-30"/>
       <use xlink:href="#DejaVuSans-2e" transform="translate(63.623047 0)"/>
       <use xlink:href="#DejaVuSans-31" transform="translate(95.410156 0)"/>
      </g>
     </g>
    </g>
    <g id="xtick_7">
     <g id="line2d_29">
      <path d="M 581.04377 306.448 
L 581.04377 68.784 
" clip-path="url(#p1e6885d704)" style="fill: none; stroke: #e7ebf0; stroke-width: 0.7; stroke-linecap: square"/>
     </g>
     <g id="line2d_30">
      <g>
       <use xlink:href="#mc8a90993a9" x="581.04377" y="306.448" style="fill: #374151; stroke: #374151; stroke-width: 0.8"/>
      </g>
     </g>
     <g id="text_17">
      <!-- 0.2 -->
      <g style="fill: #374151" transform="translate(573.887363 320.286594) scale(0.09 -0.09)">
       <use xlink:href="#DejaVuSans-30"/>
       <use xlink:href="#DejaVuSans-2e" transform="translate(63.623047 0)"/>
       <use xlink:href="#DejaVuSans-32" transform="translate(95.410156 0)"/>
      </g>
     </g>
    </g>
    <g id="xtick_8">
     <g id="line2d_31">
      <path d="M 642.749092 306.448 
L 642.749092 68.784 
" clip-path="url(#p1e6885d704)" style="fill: none; stroke: #e7ebf0; stroke-width: 0.7; stroke-linecap: square"/>
     </g>
     <g id="line2d_32">
      <g>
       <use xlink:href="#mc8a90993a9" x="642.749092" y="306.448" style="fill: #374151; stroke: #374151; stroke-width: 0.8"/>
      </g>
     </g>
     <g id="text_18">
      <!-- 0.3 -->
      <g style="fill: #374151" transform="translate(635.592686 320.286594) scale(0.09 -0.09)">
       <use xlink:href="#DejaVuSans-30"/>
       <use xlink:href="#DejaVuSans-2e" transform="translate(63.623047 0)"/>
       <use xlink:href="#DejaVuSans-33" transform="translate(95.410156 0)"/>
      </g>
     </g>
    </g>
    <g id="xtick_9">
     <g id="line2d_33">
      <path d="M 704.454414 306.448 
L 704.454414 68.784 
" clip-path="url(#p1e6885d704)" style="fill: none; stroke: #e7ebf0; stroke-width: 0.7; stroke-linecap: square"/>
     </g>
     <g id="line2d_34">
      <g>
       <use xlink:href="#mc8a90993a9" x="704.454414" y="306.448" style="fill: #374151; stroke: #374151; stroke-width: 0.8"/>
      </g>
     </g>
     <g id="text_19">
      <!-- 0.4 -->
      <g style="fill: #374151" transform="translate(697.298008 320.286594) scale(0.09 -0.09)">
       <use xlink:href="#DejaVuSans-30"/>
       <use xlink:href="#DejaVuSans-2e" transform="translate(63.623047 0)"/>
       <use xlink:href="#DejaVuSans-34" transform="translate(95.410156 0)"/>
      </g>
     </g>
    </g>
    <g id="xtick_10">
     <g id="line2d_35">
      <path d="M 766.159736 306.448 
L 766.159736 68.784 
" clip-path="url(#p1e6885d704)" style="fill: none; stroke: #e7ebf0; stroke-width: 0.7; stroke-linecap: square"/>
     </g>
     <g id="line2d_36">
      <g>
       <use xlink:href="#mc8a90993a9" x="766.159736" y="306.448" style="fill: #374151; stroke: #374151; stroke-width: 0.8"/>
      </g>
     </g>
     <g id="text_20">
      <!-- 0.5 -->
      <g style="fill: #374151" transform="translate(759.00333 320.286594) scale(0.09 -0.09)">
       <use xlink:href="#DejaVuSans-30"/>
       <use xlink:href="#DejaVuSans-2e" transform="translate(63.623047 0)"/>
       <use xlink:href="#DejaVuSans-35" transform="translate(95.410156 0)"/>
      </g>
     </g>
    </g>
    <g id="text_21">
     <!-- Mean monthly long-short return (%) -->
     <g transform="translate(537.385078 332.996906) scale(0.09 -0.09)">
      <use xlink:href="#DejaVuSans-4d"/>
      <use xlink:href="#DejaVuSans-65" transform="translate(86.279297 0)"/>
      <use xlink:href="#DejaVuSans-61" transform="translate(147.802734 0)"/>
      <use xlink:href="#DejaVuSans-6e" transform="translate(209.082031 0)"/>
      <use xlink:href="#DejaVuSans-20" transform="translate(272.460938 0)"/>
      <use xlink:href="#DejaVuSans-6d" transform="translate(304.248047 0)"/>
      <use xlink:href="#DejaVuSans-6f" transform="translate(401.660156 0)"/>
      <use xlink:href="#DejaVuSans-6e" transform="translate(462.841797 0)"/>
      <use xlink:href="#DejaVuSans-74" transform="translate(526.220703 0)"/>
      <use xlink:href="#DejaVuSans-68" transform="translate(565.429688 0)"/>
      <use xlink:href="#DejaVuSans-6c" transform="translate(628.808594 0)"/>
      <use xlink:href="#DejaVuSans-79" transform="translate(656.591797 0)"/>
      <use xlink:href="#DejaVuSans-20" transform="translate(715.771484 0)"/>
      <use xlink:href="#DejaVuSans-6c" transform="translate(747.558594 0)"/>
      <use xlink:href="#DejaVuSans-6f" transform="translate(775.341797 0)"/>
      <use xlink:href="#DejaVuSans-6e" transform="translate(836.523438 0)"/>
      <use xlink:href="#DejaVuSans-67" transform="translate(899.902344 0)"/>
      <use xlink:href="#DejaVuSans-2d" transform="translate(963.378906 0)"/>
      <use xlink:href="#DejaVuSans-73" transform="translate(999.462891 0)"/>
      <use xlink:href="#DejaVuSans-68" transform="translate(1051.5625 0)"/>
      <use xlink:href="#DejaVuSans-6f" transform="translate(1114.941406 0)"/>
      <use xlink:href="#DejaVuSans-72" transform="translate(1176.123047 0)"/>
      <use xlink:href="#DejaVuSans-74" transform="translate(1217.236328 0)"/>
      <use xlink:href="#DejaVuSans-20" transform="translate(1256.445312 0)"/>
      <use xlink:href="#DejaVuSans-72" transform="translate(1288.232422 0)"/>
      <use xlink:href="#DejaVuSans-65" transform="translate(1327.095703 0)"/>
      <use xlink:href="#DejaVuSans-74" transform="translate(1388.619141 0)"/>
      <use xlink:href="#DejaVuSans-75" transform="translate(1427.828125 0)"/>
      <use xlink:href="#DejaVuSans-72" transform="translate(1491.207031 0)"/>
      <use xlink:href="#DejaVuSans-6e" transform="translate(1530.570312 0)"/>
      <use xlink:href="#DejaVuSans-20" transform="translate(1593.949219 0)"/>
      <use xlink:href="#DejaVuSans-28" transform="translate(1625.736328 0)"/>
      <use xlink:href="#DejaVuSans-25" transform="translate(1664.75 0)"/>
      <use xlink:href="#DejaVuSans-29" transform="translate(1759.769531 0)"/>
     </g>
    </g>
   </g>
   <g id="matplotlib.axis_4">
    <g id="ytick_9">
     <g id="line2d_37">
      <path d="M 457.633125 92.296214 
L 779.023125 92.296214 
" clip-path="url(#p1e6885d704)" style="fill: none; stroke: #e7ebf0; stroke-width: 0.7; stroke-linecap: square"/>
     </g>
     <g id="line2d_38">
      <g>
       <use xlink:href="#mde8b66ad6b" x="457.633125" y="92.296214" style="fill: #374151; stroke: #374151; stroke-width: 0.8"/>
      </g>
     </g>
     <g id="text_22">
      <!-- Published -->
      <g style="fill: #374151" transform="translate(407.302344 95.715511) scale(0.09 -0.09)">
       <defs>
        <path id="DejaVuSans-50" d="M 1259 4147 
L 1259 2394 
L 2053 2394 
Q 2494 2394 2734 2622 
Q 2975 2850 2975 3272 
Q 2975 3691 2734 3919 
Q 2494 4147 2053 4147 
L 1259 4147 
z
M 628 4666 
L 2053 4666 
Q 2838 4666 3239 4311 
Q 3641 3956 3641 3272 
Q 3641 2581 3239 2228 
Q 2838 1875 2053 1875 
L 1259 1875 
L 1259 0 
L 628 0 
L 628 4666 
z
" transform="scale(0.015625)"/>
        <path id="DejaVuSans-62" d="M 3116 1747 
Q 3116 2381 2855 2742 
Q 2594 3103 2138 3103 
Q 1681 3103 1420 2742 
Q 1159 2381 1159 1747 
Q 1159 1113 1420 752 
Q 1681 391 2138 391 
Q 2594 391 2855 752 
Q 3116 1113 3116 1747 
z
M 1159 2969 
Q 1341 3281 1617 3432 
Q 1894 3584 2278 3584 
Q 2916 3584 3314 3078 
Q 3713 2572 3713 1747 
Q 3713 922 3314 415 
Q 2916 -91 2278 -91 
Q 1894 -91 1617 61 
Q 1341 213 1159 525 
L 1159 0 
L 581 0 
L 581 4863 
L 1159 4863 
L 1159 2969 
z
" transform="scale(0.015625)"/>
        <path id="DejaVuSans-69" d="M 603 3500 
L 1178 3500 
L 1178 0 
L 603 0 
L 603 3500 
z
M 603 4863 
L 1178 4863 
L 1178 4134 
L 603 4134 
L 603 4863 
z
" transform="scale(0.015625)"/>
        <path id="DejaVuSans-64" d="M 2906 2969 
L 2906 4863 
L 3481 4863 
L 3481 0 
L 2906 0 
L 2906 525 
Q 2725 213 2448 61 
Q 2172 -91 1784 -91 
Q 1150 -91 751 415 
Q 353 922 353 1747 
Q 353 2572 751 3078 
Q 1150 3584 1784 3584 
Q 2172 3584 2448 3432 
Q 2725 3281 2906 2969 
z
M 947 1747 
Q 947 1113 1208 752 
Q 1469 391 1925 391 
Q 2381 391 2643 752 
Q 2906 1113 2906 1747 
Q 2906 2381 2643 2742 
Q 2381 3103 1925 3103 
Q 1469 3103 1208 2742 
Q 947 2381 947 1747 
z
" transform="scale(0.015625)"/>
       </defs>
       <use xlink:href="#DejaVuSans-50"/>
       <use xlink:href="#DejaVuSans-75" transform="translate(58.552734 0)"/>
       <use xlink:href="#DejaVuSans-62" transform="translate(121.931641 0)"/>
       <use xlink:href="#DejaVuSans-6c" transform="translate(185.408203 0)"/>
       <use xlink:href="#DejaVuSans-69" transform="translate(213.191406 0)"/>
       <use xlink:href="#DejaVuSans-73" transform="translate(240.974609 0)"/>
       <use xlink:href="#DejaVuSans-68" transform="translate(293.074219 0)"/>
       <use xlink:href="#DejaVuSans-65" transform="translate(356.453125 0)"/>
       <use xlink:href="#DejaVuSans-64" transform="translate(417.976562 0)"/>
      </g>
     </g>
    </g>
    <g id="ytick_10">
     <g id="line2d_39">
      <path d="M 457.633125 124.069476 
L 779.023125 124.069476 
" clip-path="url(#p1e6885d704)" style="fill: none; stroke: #e7ebf0; stroke-width: 0.7; stroke-linecap: square"/>
     </g>
     <g id="line2d_40">
      <g>
       <use xlink:href="#mde8b66ad6b" x="457.633125" y="124.069476" style="fill: #374151; stroke: #374151; stroke-width: 0.8"/>
      </g>
     </g>
     <g id="text_23">
      <!-- EW deciles -->
      <g style="fill: #374151" transform="translate(401.760312 127.488773) scale(0.09 -0.09)">
       <defs>
        <path id="DejaVuSans-45" d="M 628 4666 
L 3578 4666 
L 3578 4134 
L 1259 4134 
L 1259 2753 
L 3481 2753 
L 3481 2222 
L 1259 2222 
L 1259 531 
L 3634 531 
L 3634 0 
L 628 0 
L 628 4666 
z
" transform="scale(0.015625)"/>
        <path id="DejaVuSans-57" d="M 213 4666 
L 850 4666 
L 1831 722 
L 2809 4666 
L 3519 4666 
L 4500 722 
L 5478 4666 
L 6119 4666 
L 4947 0 
L 4153 0 
L 3169 4050 
L 2175 0 
L 1381 0 
L 213 4666 
z
" transform="scale(0.015625)"/>
        <path id="DejaVuSans-63" d="M 3122 3366 
L 3122 2828 
Q 2878 2963 2633 3030 
Q 2388 3097 2138 3097 
Q 1578 3097 1268 2742 
Q 959 2388 959 1747 
Q 959 1106 1268 751 
Q 1578 397 2138 397 
Q 2388 397 2633 464 
Q 2878 531 3122 666 
L 3122 134 
Q 2881 22 2623 -34 
Q 2366 -91 2075 -91 
Q 1284 -91 818 406 
Q 353 903 353 1747 
Q 353 2603 823 3093 
Q 1294 3584 2113 3584 
Q 2378 3584 2631 3529 
Q 2884 3475 3122 3366 
z
" transform="scale(0.015625)"/>
       </defs>
       <use xlink:href="#DejaVuSans-45"/>
       <use xlink:href="#DejaVuSans-57" transform="translate(63.183594 0)"/>
       <use xlink:href="#DejaVuSans-20" transform="translate(162.060547 0)"/>
       <use xlink:href="#DejaVuSans-64" transform="translate(193.847656 0)"/>
       <use xlink:href="#DejaVuSans-65" transform="translate(257.324219 0)"/>
       <use xlink:href="#DejaVuSans-63" transform="translate(318.847656 0)"/>
       <use xlink:href="#DejaVuSans-69" transform="translate(373.828125 0)"/>
       <use xlink:href="#DejaVuSans-6c" transform="translate(401.611328 0)"/>
       <use xlink:href="#DejaVuSans-65" transform="translate(429.394531 0)"/>
       <use xlink:href="#DejaVuSans-73" transform="translate(490.917969 0)"/>
      </g>
     </g>
    </g>
    <g id="ytick_11">
     <g id="line2d_41">
      <path d="M 457.633125 155.842738 
L 779.023125 155.842738 
" clip-path="url(#p1e6885d704)" style="fill: none; stroke: #e7ebf0; stroke-width: 0.7; stroke-linecap: square"/>
     </g>
     <g id="line2d_42">
      <g>
       <use xlink:href="#mde8b66ad6b" x="457.633125" y="155.842738" style="fill: #374151; stroke: #374151; stroke-width: 0.8"/>
      </g>
     </g>
     <g id="text_24">
      <!-- Quintiles -->
      <g style="fill: #374151" transform="translate(410.885469 159.262035) scale(0.09 -0.09)">
       <defs>
        <path id="DejaVuSans-51" d="M 2522 4238 
Q 1834 4238 1429 3725 
Q 1025 3213 1025 2328 
Q 1025 1447 1429 934 
Q 1834 422 2522 422 
Q 3209 422 3611 934 
Q 4013 1447 4013 2328 
Q 4013 3213 3611 3725 
Q 3209 4238 2522 4238 
z
M 3406 84 
L 4238 -825 
L 3475 -825 
L 2784 -78 
Q 2681 -84 2626 -87 
Q 2572 -91 2522 -91 
Q 1538 -91 948 567 
Q 359 1225 359 2328 
Q 359 3434 948 4092 
Q 1538 4750 2522 4750 
Q 3503 4750 4090 4092 
Q 4678 3434 4678 2328 
Q 4678 1516 4351 937 
Q 4025 359 3406 84 
z
" transform="scale(0.015625)"/>
       </defs>
       <use xlink:href="#DejaVuSans-51"/>
       <use xlink:href="#DejaVuSans-75" transform="translate(78.710938 0)"/>
       <use xlink:href="#DejaVuSans-69" transform="translate(142.089844 0)"/>
       <use xlink:href="#DejaVuSans-6e" transform="translate(169.873047 0)"/>
       <use xlink:href="#DejaVuSans-74" transform="translate(233.251953 0)"/>
       <use xlink:href="#DejaVuSans-69" transform="translate(272.460938 0)"/>
       <use xlink:href="#DejaVuSans-6c" transform="translate(300.244141 0)"/>
       <use xlink:href="#DejaVuSans-65" transform="translate(328.027344 0)"/>
       <use xlink:href="#DejaVuSans-73" transform="translate(389.550781 0)"/>
      </g>
     </g>
    </g>
    <g id="ytick_12">
     <g id="line2d_43">
      <path d="M 457.633125 187.616 
L 779.023125 187.616 
" clip-path="url(#p1e6885d704)" style="fill: none; stroke: #e7ebf0; stroke-width: 0.7; stroke-linecap: square"/>
     </g>
     <g id="line2d_44">
      <g>
       <use xlink:href="#mde8b66ad6b" x="457.633125" y="187.616" style="fill: #374151; stroke: #374151; stroke-width: 0.8"/>
      </g>
     </g>
     <g id="text_25">
      <!-- VW deciles -->
      <g style="fill: #374151" transform="translate(401.290625 191.035297) scale(0.09 -0.09)">
       <defs>
        <path id="DejaVuSans-56" d="M 1831 0 
L 50 4666 
L 709 4666 
L 2188 738 
L 3669 4666 
L 4325 4666 
L 2547 0 
L 1831 0 
z
" transform="scale(0.015625)"/>
       </defs>
       <use xlink:href="#DejaVuSans-56"/>
       <use xlink:href="#DejaVuSans-57" transform="translate(68.408203 0)"/>
       <use xlink:href="#DejaVuSans-20" transform="translate(167.285156 0)"/>
       <use xlink:href="#DejaVuSans-64" transform="translate(199.072266 0)"/>
       <use xlink:href="#DejaVuSans-65" transform="translate(262.548828 0)"/>
       <use xlink:href="#DejaVuSans-63" transform="translate(324.072266 0)"/>
       <use xlink:href="#DejaVuSans-69" transform="translate(379.052734 0)"/>
       <use xlink:href="#DejaVuSans-6c" transform="translate(406.835938 0)"/>
       <use xlink:href="#DejaVuSans-65" transform="translate(434.619141 0)"/>
       <use xlink:href="#DejaVuSans-73" transform="translate(496.142578 0)"/>
      </g>
     </g>
    </g>
    <g id="ytick_13">
     <g id="line2d_45">
      <path d="M 457.633125 219.389262 
L 779.023125 219.389262 
" clip-path="url(#p1e6885d704)" style="fill: none; stroke: #e7ebf0; stroke-width: 0.7; stroke-linecap: square"/>
     </g>
     <g id="line2d_46">
      <g>
       <use xlink:href="#mde8b66ad6b" x="457.633125" y="219.389262" style="fill: #374151; stroke: #374151; stroke-width: 0.8"/>
      </g>
     </g>
     <g id="text_26">
      <!-- Above NYSE 20th -->
      <g style="fill: #374151" transform="translate(372.355625 222.808559) scale(0.09 -0.09)">
       <defs>
        <path id="DejaVuSans-41" d="M 2188 4044 
L 1331 1722 
L 3047 1722 
L 2188 4044 
z
M 1831 4666 
L 2547 4666 
L 4325 0 
L 3669 0 
L 3244 1197 
L 1141 1197 
L 716 0 
L 50 0 
L 1831 4666 
z
" transform="scale(0.015625)"/>
        <path id="DejaVuSans-76" d="M 191 3500 
L 800 3500 
L 1894 563 
L 2988 3500 
L 3597 3500 
L 2284 0 
L 1503 0 
L 191 3500 
z
" transform="scale(0.015625)"/>
        <path id="DejaVuSans-4e" d="M 628 4666 
L 1478 4666 
L 3547 763 
L 3547 4666 
L 4159 4666 
L 4159 0 
L 3309 0 
L 1241 3903 
L 1241 0 
L 628 0 
L 628 4666 
z
" transform="scale(0.015625)"/>
        <path id="DejaVuSans-59" d="M -13 4666 
L 666 4666 
L 1959 2747 
L 3244 4666 
L 3922 4666 
L 2272 2222 
L 2272 0 
L 1638 0 
L 1638 2222 
L -13 4666 
z
" transform="scale(0.015625)"/>
        <path id="DejaVuSans-53" d="M 3425 4513 
L 3425 3897 
Q 3066 4069 2747 4153 
Q 2428 4238 2131 4238 
Q 1616 4238 1336 4038 
Q 1056 3838 1056 3469 
Q 1056 3159 1242 3001 
Q 1428 2844 1947 2747 
L 2328 2669 
Q 3034 2534 3370 2195 
Q 3706 1856 3706 1288 
Q 3706 609 3251 259 
Q 2797 -91 1919 -91 
Q 1588 -91 1214 -16 
Q 841 59 441 206 
L 441 856 
Q 825 641 1194 531 
Q 1563 422 1919 422 
Q 2459 422 2753 634 
Q 3047 847 3047 1241 
Q 3047 1584 2836 1778 
Q 2625 1972 2144 2069 
L 1759 2144 
Q 1053 2284 737 2584 
Q 422 2884 422 3419 
Q 422 4038 858 4394 
Q 1294 4750 2059 4750 
Q 2388 4750 2728 4690 
Q 3069 4631 3425 4513 
z
" transform="scale(0.015625)"/>
       </defs>
       <use xlink:href="#DejaVuSans-41"/>
       <use xlink:href="#DejaVuSans-62" transform="translate(68.408203 0)"/>
       <use xlink:href="#DejaVuSans-6f" transform="translate(131.884766 0)"/>
       <use xlink:href="#DejaVuSans-76" transform="translate(193.066406 0)"/>
       <use xlink:href="#DejaVuSans-65" transform="translate(252.246094 0)"/>
       <use xlink:href="#DejaVuSans-20" transform="translate(313.769531 0)"/>
       <use xlink:href="#DejaVuSans-4e" transform="translate(345.556641 0)"/>
       <use xlink:href="#DejaVuSans-59" transform="translate(420.361328 0)"/>
       <use xlink:href="#DejaVuSans-53" transform="translate(481.445312 0)"/>
       <use xlink:href="#DejaVuSans-45" transform="translate(544.921875 0)"/>
       <use xlink:href="#DejaVuSans-20" transform="translate(608.105469 0)"/>
       <use xlink:href="#DejaVuSans-32" transform="translate(639.892578 0)"/>
       <use xlink:href="#DejaVuSans-30" transform="translate(703.515625 0)"/>
       <use xlink:href="#DejaVuSans-74" transform="translate(767.138672 0)"/>
       <use xlink:href="#DejaVuSans-68" transform="translate(806.347656 0)"/>
      </g>
     </g>
    </g>
    <g id="ytick_14">
     <g id="line2d_47">
      <path d="M 457.633125 251.162524 
L 779.023125 251.162524 
" clip-path="url(#p1e6885d704)" style="fill: none; stroke: #e7ebf0; stroke-width: 0.7; stroke-linecap: square"/>
     </g>
     <g id="line2d_48">
      <g>
       <use xlink:href="#mde8b66ad6b" x="457.633125" y="251.162524" style="fill: #374151; stroke: #374151; stroke-width: 0.8"/>
      </g>
     </g>
     <g id="text_27">
      <!-- NYSE only -->
      <g style="fill: #374151" transform="translate(405.104375 254.581821) scale(0.09 -0.09)">
       <use xlink:href="#DejaVuSans-4e"/>
       <use xlink:href="#DejaVuSans-59" transform="translate(74.804688 0)"/>
       <use xlink:href="#DejaVuSans-53" transform="translate(135.888672 0)"/>
       <use xlink:href="#DejaVuSans-45" transform="translate(199.365234 0)"/>
       <use xlink:href="#DejaVuSans-20" transform="translate(262.548828 0)"/>
       <use xlink:href="#DejaVuSans-6f" transform="translate(294.335938 0)"/>
       <use xlink:href="#DejaVuSans-6e" transform="translate(355.517578 0)"/>
       <use xlink:href="#DejaVuSans-6c" transform="translate(418.896484 0)"/>
       <use xlink:href="#DejaVuSans-79" transform="translate(446.679688 0)"/>
      </g>
     </g>
    </g>
    <g id="ytick_15">
     <g id="line2d_49">
      <path d="M 457.633125 282.935786 
L 779.023125 282.935786 
" clip-path="url(#p1e6885d704)" style="fill: none; stroke: #e7ebf0; stroke-width: 0.7; stroke-linecap: square"/>
     </g>
     <g id="line2d_50">
      <g>
       <use xlink:href="#mde8b66ad6b" x="457.633125" y="282.935786" style="fill: #374151; stroke: #374151; stroke-width: 0.8"/>
      </g>
     </g>
     <g id="text_28">
      <!-- Price above $5 -->
      <g style="fill: #374151" transform="translate(383.90375 286.355083) scale(0.09 -0.09)">
       <defs>
        <path id="DejaVuSans-24" d="M 2163 -941 
L 1850 -941 
L 1847 0 
Q 1519 6 1191 76 
Q 863 147 531 288 
L 531 850 
Q 850 650 1176 548 
Q 1503 447 1850 444 
L 1850 1869 
Q 1159 1981 845 2250 
Q 531 2519 531 2988 
Q 531 3497 872 3790 
Q 1213 4084 1850 4128 
L 1850 4863 
L 2163 4863 
L 2163 4138 
Q 2453 4125 2725 4076 
Q 2997 4028 3256 3944 
L 3256 3397 
Q 2997 3528 2723 3600 
Q 2450 3672 2163 3684 
L 2163 2350 
Q 2872 2241 3206 1959 
Q 3541 1678 3541 1191 
Q 3541 663 3186 358 
Q 2831 53 2163 6 
L 2163 -941 
z
M 1850 2406 
L 1850 3688 
Q 1488 3647 1297 3481 
Q 1106 3316 1106 3041 
Q 1106 2772 1282 2622 
Q 1459 2472 1850 2406 
z
M 2163 1806 
L 2163 453 
Q 2559 506 2761 678 
Q 2963 850 2963 1131 
Q 2963 1406 2770 1568 
Q 2578 1731 2163 1806 
z
" transform="scale(0.015625)"/>
       </defs>
       <use xlink:href="#DejaVuSans-50"/>
       <use xlink:href="#DejaVuSans-72" transform="translate(58.552734 0)"/>
       <use xlink:href="#DejaVuSans-69" transform="translate(99.666016 0)"/>
       <use xlink:href="#DejaVuSans-63" transform="translate(127.449219 0)"/>
       <use xlink:href="#DejaVuSans-65" transform="translate(182.429688 0)"/>
       <use xlink:href="#DejaVuSans-20" transform="translate(243.953125 0)"/>
       <use xlink:href="#DejaVuSans-61" transform="translate(275.740234 0)"/>
       <use xlink:href="#DejaVuSans-62" transform="translate(337.019531 0)"/>
       <use xlink:href="#DejaVuSans-6f" transform="translate(400.496094 0)"/>
       <use xlink:href="#DejaVuSans-76" transform="translate(461.677734 0)"/>
       <use xlink:href="#DejaVuSans-65" transform="translate(520.857422 0)"/>
       <use xlink:href="#DejaVuSans-20" transform="translate(582.380859 0)"/>
       <use xlink:href="#DejaVuSans-24" transform="translate(614.167969 0)"/>
       <use xlink:href="#DejaVuSans-35" transform="translate(677.791016 0)"/>
      </g>
     </g>
    </g>
   </g>
   <g id="patch_17">
    <path d="M 457.633125 306.448 
L 457.633125 68.784 
" style="fill: none; stroke: #8a97a6; stroke-width: 0.8; stroke-linejoin: miter; stroke-linecap: square"/>
   </g>
   <g id="patch_18">
    <path d="M 457.633125 306.448 
L 779.023125 306.448 
" style="fill: none; stroke: #8a97a6; stroke-width: 0.8; stroke-linejoin: miter; stroke-linecap: square"/>
   </g>
   <g id="text_29">
    <!-- Portfolio-construction robustness, 1990-2024 -->
    <g style="fill: #102a43" transform="translate(464.116875 62.784) scale(0.12 -0.12)">
     <defs>
      <path id="DejaVuSans-Bold-66" d="M 2841 4863 
L 2841 4128 
L 2222 4128 
Q 1984 4128 1890 4042 
Q 1797 3956 1797 3744 
L 1797 3500 
L 2753 3500 
L 2753 2700 
L 1797 2700 
L 1797 0 
L 678 0 
L 678 2700 
L 122 2700 
L 122 3500 
L 678 3500 
L 678 3744 
Q 678 4316 997 4589 
Q 1316 4863 1984 4863 
L 2841 4863 
z
" transform="scale(0.015625)"/>
      <path id="DejaVuSans-Bold-2d" d="M 347 2297 
L 2309 2297 
L 2309 1388 
L 347 1388 
L 347 2297 
z
" transform="scale(0.015625)"/>
      <path id="DejaVuSans-Bold-6e" d="M 4056 2131 
L 4056 0 
L 2931 0 
L 2931 347 
L 2931 1631 
Q 2931 2084 2911 2256 
Q 2891 2428 2841 2509 
Q 2775 2619 2662 2680 
Q 2550 2741 2406 2741 
Q 2056 2741 1856 2470 
Q 1656 2200 1656 1722 
L 1656 0 
L 538 0 
L 538 3500 
L 1656 3500 
L 1656 2988 
Q 1909 3294 2193 3439 
Q 2478 3584 2822 3584 
Q 3428 3584 3742 3212 
Q 4056 2841 4056 2131 
z
" transform="scale(0.015625)"/>
      <path id="DejaVuSans-Bold-2c" d="M 653 1209 
L 1778 1209 
L 1778 256 
L 1006 -909 
L 341 -909 
L 653 256 
L 653 1209 
z
" transform="scale(0.015625)"/>
      <path id="DejaVuSans-Bold-31" d="M 750 831 
L 1813 831 
L 1813 3847 
L 722 3622 
L 722 4441 
L 1806 4666 
L 2950 4666 
L 2950 831 
L 4013 831 
L 4013 0 
L 750 0 
L 750 831 
z
" transform="scale(0.015625)"/>
      <path id="DejaVuSans-Bold-39" d="M 641 103 
L 641 966 
Q 928 831 1190 764 
Q 1453 697 1709 697 
Q 2247 697 2547 995 
Q 2847 1294 2900 1881 
Q 2688 1725 2447 1647 
Q 2206 1569 1925 1569 
Q 1209 1569 770 1986 
Q 331 2403 331 3084 
Q 331 3838 820 4291 
Q 1309 4744 2131 4744 
Q 3044 4744 3544 4128 
Q 4044 3513 4044 2388 
Q 4044 1231 3459 570 
Q 2875 -91 1856 -91 
Q 1528 -91 1228 -42 
Q 928 6 641 103 
z
M 2125 2350 
Q 2441 2350 2600 2554 
Q 2759 2759 2759 3169 
Q 2759 3575 2600 3781 
Q 2441 3988 2125 3988 
Q 1809 3988 1650 3781 
Q 1491 3575 1491 3169 
Q 1491 2759 1650 2554 
Q 1809 2350 2125 2350 
z
" transform="scale(0.015625)"/>
      <path id="DejaVuSans-Bold-30" d="M 2944 2338 
Q 2944 3213 2780 3570 
Q 2616 3928 2228 3928 
Q 1841 3928 1675 3570 
Q 1509 3213 1509 2338 
Q 1509 1453 1675 1090 
Q 1841 728 2228 728 
Q 2613 728 2778 1090 
Q 2944 1453 2944 2338 
z
M 4147 2328 
Q 4147 1169 3647 539 
Q 3147 -91 2228 -91 
Q 1306 -91 806 539 
Q 306 1169 306 2328 
Q 306 3491 806 4120 
Q 1306 4750 2228 4750 
Q 3147 4750 3647 4120 
Q 4147 3491 4147 2328 
z
" transform="scale(0.015625)"/>
      <path id="DejaVuSans-Bold-32" d="M 1844 884 
L 3897 884 
L 3897 0 
L 506 0 
L 506 884 
L 2209 2388 
Q 2438 2594 2547 2791 
Q 2656 2988 2656 3200 
Q 2656 3528 2436 3728 
Q 2216 3928 1850 3928 
Q 1569 3928 1234 3808 
Q 900 3688 519 3450 
L 519 4475 
Q 925 4609 1322 4679 
Q 1719 4750 2100 4750 
Q 2938 4750 3402 4381 
Q 3866 4013 3866 3353 
Q 3866 2972 3669 2642 
Q 3472 2313 2841 1759 
L 1844 884 
z
" transform="scale(0.015625)"/>
      <path id="DejaVuSans-Bold-34" d="M 2356 3675 
L 1038 1722 
L 2356 1722 
L 2356 3675 
z
M 2156 4666 
L 3494 4666 
L 3494 1722 
L 4159 1722 
L 4159 850 
L 3494 850 
L 3494 0 
L 2356 0 
L 2356 850 
L 288 850 
L 288 1881 
L 2156 4666 
z
" transform="scale(0.015625)"/>
     </defs>
     <use xlink:href="#DejaVuSans-Bold-50"/>
     <use xlink:href="#DejaVuSans-Bold-6f" transform="translate(73.291016 0)"/>
     <use xlink:href="#DejaVuSans-Bold-72" transform="translate(141.992188 0)"/>
     <use xlink:href="#DejaVuSans-Bold-74" transform="translate(191.308594 0)"/>
     <use xlink:href="#DejaVuSans-Bold-66" transform="translate(239.111328 0)"/>
     <use xlink:href="#DejaVuSans-Bold-6f" transform="translate(282.617188 0)"/>
     <use xlink:href="#DejaVuSans-Bold-6c" transform="translate(351.318359 0)"/>
     <use xlink:href="#DejaVuSans-Bold-69" transform="translate(385.595703 0)"/>
     <use xlink:href="#DejaVuSans-Bold-6f" transform="translate(419.873047 0)"/>
     <use xlink:href="#DejaVuSans-Bold-2d" transform="translate(488.574219 0)"/>
     <use xlink:href="#DejaVuSans-Bold-63" transform="translate(530.078125 0)"/>
     <use xlink:href="#DejaVuSans-Bold-6f" transform="translate(589.355469 0)"/>
     <use xlink:href="#DejaVuSans-Bold-6e" transform="translate(658.056641 0)"/>
     <use xlink:href="#DejaVuSans-Bold-73" transform="translate(729.248047 0)"/>
     <use xlink:href="#DejaVuSans-Bold-74" transform="translate(788.769531 0)"/>
     <use xlink:href="#DejaVuSans-Bold-72" transform="translate(836.572266 0)"/>
     <use xlink:href="#DejaVuSans-Bold-75" transform="translate(885.888672 0)"/>
     <use xlink:href="#DejaVuSans-Bold-63" transform="translate(957.080078 0)"/>
     <use xlink:href="#DejaVuSans-Bold-74" transform="translate(1016.357422 0)"/>
     <use xlink:href="#DejaVuSans-Bold-69" transform="translate(1064.160156 0)"/>
     <use xlink:href="#DejaVuSans-Bold-6f" transform="translate(1098.4375 0)"/>
     <use xlink:href="#DejaVuSans-Bold-6e" transform="translate(1167.138672 0)"/>
     <use xlink:href="#DejaVuSans-Bold-20" transform="translate(1238.330078 0)"/>
     <use xlink:href="#DejaVuSans-Bold-72" transform="translate(1273.144531 0)"/>
     <use xlink:href="#DejaVuSans-Bold-6f" transform="translate(1322.460938 0)"/>
     <use xlink:href="#DejaVuSans-Bold-62" transform="translate(1391.162109 0)"/>
     <use xlink:href="#DejaVuSans-Bold-75" transform="translate(1462.744141 0)"/>
     <use xlink:href="#DejaVuSans-Bold-73" transform="translate(1533.935547 0)"/>
     <use xlink:href="#DejaVuSans-Bold-74" transform="translate(1593.457031 0)"/>
     <use xlink:href="#DejaVuSans-Bold-6e" transform="translate(1641.259766 0)"/>
     <use xlink:href="#DejaVuSans-Bold-65" transform="translate(1712.451172 0)"/>
     <use xlink:href="#DejaVuSans-Bold-73" transform="translate(1780.273438 0)"/>
     <use xlink:href="#DejaVuSans-Bold-73" transform="translate(1839.794922 0)"/>
     <use xlink:href="#DejaVuSans-Bold-2c" transform="translate(1899.316406 0)"/>
     <use xlink:href="#DejaVuSans-Bold-20" transform="translate(1937.304688 0)"/>
     <use xlink:href="#DejaVuSans-Bold-31" transform="translate(1972.119141 0)"/>
     <use xlink:href="#DejaVuSans-Bold-39" transform="translate(2041.699219 0)"/>
     <use xlink:href="#DejaVuSans-Bold-39" transform="translate(2111.279297 0)"/>
     <use xlink:href="#DejaVuSans-Bold-30" transform="translate(2180.859375 0)"/>
     <use xlink:href="#DejaVuSans-Bold-2d" transform="translate(2250.439453 0)"/>
     <use xlink:href="#DejaVuSans-Bold-32" transform="translate(2291.943359 0)"/>
     <use xlink:href="#DejaVuSans-Bold-30" transform="translate(2361.523438 0)"/>
     <use xlink:href="#DejaVuSans-Bold-32" transform="translate(2431.103516 0)"/>
     <use xlink:href="#DejaVuSans-Bold-34" transform="translate(2500.683594 0)"/>
    </g>
   </g>
  </g>
  <g id="text_30">
   <!-- Public gross long-short evidence is weaker in the recent sample -->
   <g style="fill: #102a43" transform="translate(139.515937 17.837812) scale(0.14 -0.14)">
    <defs>
     <path id="DejaVuSans-Bold-76" d="M 97 3500 
L 1216 3500 
L 2088 1081 
L 2956 3500 
L 4078 3500 
L 2700 0 
L 1472 0 
L 97 3500 
z
" transform="scale(0.015625)"/>
     <path id="DejaVuSans-Bold-64" d="M 2919 2988 
L 2919 4863 
L 4044 4863 
L 4044 0 
L 2919 0 
L 2919 506 
Q 2688 197 2409 53 
Q 2131 -91 1766 -91 
Q 1119 -91 703 423 
Q 288 938 288 1747 
Q 288 2556 703 3070 
Q 1119 3584 1766 3584 
Q 2128 3584 2408 3439 
Q 2688 3294 2919 2988 
z
M 2181 722 
Q 2541 722 2730 984 
Q 2919 1247 2919 1747 
Q 2919 2247 2730 2509 
Q 2541 2772 2181 2772 
Q 1825 2772 1636 2509 
Q 1447 2247 1447 1747 
Q 1447 1247 1636 984 
Q 1825 722 2181 722 
z
" transform="scale(0.015625)"/>
     <path id="DejaVuSans-Bold-77" d="M 225 3500 
L 1313 3500 
L 1900 1088 
L 2491 3500 
L 3425 3500 
L 4013 1113 
L 4603 3500 
L 5691 3500 
L 4769 0 
L 3547 0 
L 2956 2406 
L 2369 0 
L 1147 0 
L 225 3500 
z
" transform="scale(0.015625)"/>
     <path id="DejaVuSans-Bold-61" d="M 2106 1575 
Q 1756 1575 1579 1456 
Q 1403 1338 1403 1106 
Q 1403 894 1545 773 
Q 1688 653 1941 653 
Q 2256 653 2472 879 
Q 2688 1106 2688 1447 
L 2688 1575 
L 2106 1575 
z
M 3816 1997 
L 3816 0 
L 2688 0 
L 2688 519 
Q 2463 200 2181 54 
Q 1900 -91 1497 -91 
Q 953 -91 614 226 
Q 275 544 275 1050 
Q 275 1666 698 1953 
Q 1122 2241 2028 2241 
L 2688 2241 
L 2688 2328 
Q 2688 2594 2478 2717 
Q 2269 2841 1825 2841 
Q 1466 2841 1156 2769 
Q 847 2697 581 2553 
L 581 3406 
Q 941 3494 1303 3539 
Q 1666 3584 2028 3584 
Q 2975 3584 3395 3211 
Q 3816 2838 3816 1997 
z
" transform="scale(0.015625)"/>
     <path id="DejaVuSans-Bold-6b" d="M 538 4863 
L 1656 4863 
L 1656 2216 
L 2944 3500 
L 4244 3500 
L 2534 1894 
L 4378 0 
L 3022 0 
L 1656 1459 
L 1656 0 
L 538 0 
L 538 4863 
z
" transform="scale(0.015625)"/>
    </defs>
    <use xlink:href="#DejaVuSans-Bold-50"/>
    <use xlink:href="#DejaVuSans-Bold-75" transform="translate(73.291016 0)"/>
    <use xlink:href="#DejaVuSans-Bold-62" transform="translate(144.482422 0)"/>
    <use xlink:href="#DejaVuSans-Bold-6c" transform="translate(216.064453 0)"/>
    <use xlink:href="#DejaVuSans-Bold-69" transform="translate(250.341797 0)"/>
    <use xlink:href="#DejaVuSans-Bold-63" transform="translate(284.619141 0)"/>
    <use xlink:href="#DejaVuSans-Bold-20" transform="translate(343.896484 0)"/>
    <use xlink:href="#DejaVuSans-Bold-67" transform="translate(378.710938 0)"/>
    <use xlink:href="#DejaVuSans-Bold-72" transform="translate(450.292969 0)"/>
    <use xlink:href="#DejaVuSans-Bold-6f" transform="translate(499.609375 0)"/>
    <use xlink:href="#DejaVuSans-Bold-73" transform="translate(568.310547 0)"/>
    <use xlink:href="#DejaVuSans-Bold-73" transform="translate(627.832031 0)"/>
    <use xlink:href="#DejaVuSans-Bold-20" transform="translate(687.353516 0)"/>
    <use xlink:href="#DejaVuSans-Bold-6c" transform="translate(722.167969 0)"/>
    <use xlink:href="#DejaVuSans-Bold-6f" transform="translate(756.445312 0)"/>
    <use xlink:href="#DejaVuSans-Bold-6e" transform="translate(825.146484 0)"/>
    <use xlink:href="#DejaVuSans-Bold-67" transform="translate(896.337891 0)"/>
    <use xlink:href="#DejaVuSans-Bold-2d" transform="translate(967.919922 0)"/>
    <use xlink:href="#DejaVuSans-Bold-73" transform="translate(1009.423828 0)"/>
    <use xlink:href="#DejaVuSans-Bold-68" transform="translate(1068.945312 0)"/>
    <use xlink:href="#DejaVuSans-Bold-6f" transform="translate(1140.136719 0)"/>
    <use xlink:href="#DejaVuSans-Bold-72" transform="translate(1208.837891 0)"/>
    <use xlink:href="#DejaVuSans-Bold-74" transform="translate(1258.154297 0)"/>
    <use xlink:href="#DejaVuSans-Bold-20" transform="translate(1305.957031 0)"/>
    <use xlink:href="#DejaVuSans-Bold-65" transform="translate(1340.771484 0)"/>
    <use xlink:href="#DejaVuSans-Bold-76" transform="translate(1408.59375 0)"/>
    <use xlink:href="#DejaVuSans-Bold-69" transform="translate(1473.779297 0)"/>
    <use xlink:href="#DejaVuSans-Bold-64" transform="translate(1508.056641 0)"/>
    <use xlink:href="#DejaVuSans-Bold-65" transform="translate(1579.638672 0)"/>
    <use xlink:href="#DejaVuSans-Bold-6e" transform="translate(1647.460938 0)"/>
    <use xlink:href="#DejaVuSans-Bold-63" transform="translate(1718.652344 0)"/>
    <use xlink:href="#DejaVuSans-Bold-65" transform="translate(1777.929688 0)"/>
    <use xlink:href="#DejaVuSans-Bold-20" transform="translate(1845.751953 0)"/>
    <use xlink:href="#DejaVuSans-Bold-69" transform="translate(1880.566406 0)"/>
    <use xlink:href="#DejaVuSans-Bold-73" transform="translate(1914.84375 0)"/>
    <use xlink:href="#DejaVuSans-Bold-20" transform="translate(1974.365234 0)"/>
    <use xlink:href="#DejaVuSans-Bold-77" transform="translate(2009.179688 0)"/>
    <use xlink:href="#DejaVuSans-Bold-65" transform="translate(2101.5625 0)"/>
    <use xlink:href="#DejaVuSans-Bold-61" transform="translate(2169.384766 0)"/>
    <use xlink:href="#DejaVuSans-Bold-6b" transform="translate(2236.865234 0)"/>
    <use xlink:href="#DejaVuSans-Bold-65" transform="translate(2300.744141 0)"/>
    <use xlink:href="#DejaVuSans-Bold-72" transform="translate(2368.566406 0)"/>
    <use xlink:href="#DejaVuSans-Bold-20" transform="translate(2417.882812 0)"/>
    <use xlink:href="#DejaVuSans-Bold-69" transform="translate(2452.697266 0)"/>
    <use xlink:href="#DejaVuSans-Bold-6e" transform="translate(2486.974609 0)"/>
    <use xlink:href="#DejaVuSans-Bold-20" transform="translate(2558.166016 0)"/>
    <use xlink:href="#DejaVuSans-Bold-74" transform="translate(2592.980469 0)"/>
    <use xlink:href="#DejaVuSans-Bold-68" transform="translate(2640.783203 0)"/>
    <use xlink:href="#DejaVuSans-Bold-65" transform="translate(2711.974609 0)"/>
    <use xlink:href="#DejaVuSans-Bold-20" transform="translate(2779.796875 0)"/>
    <use xlink:href="#DejaVuSans-Bold-72" transform="translate(2814.611328 0)"/>
    <use xlink:href="#DejaVuSans-Bold-65" transform="translate(2863.927734 0)"/>
    <use xlink:href="#DejaVuSans-Bold-63" transform="translate(2931.75 0)"/>
    <use xlink:href="#DejaVuSans-Bold-65" transform="translate(2991.027344 0)"/>
    <use xlink:href="#DejaVuSans-Bold-6e" transform="translate(3058.849609 0)"/>
    <use xlink:href="#DejaVuSans-Bold-74" transform="translate(3130.041016 0)"/>
    <use xlink:href="#DejaVuSans-Bold-20" transform="translate(3177.84375 0)"/>
    <use xlink:href="#DejaVuSans-Bold-73" transform="translate(3212.658203 0)"/>
    <use xlink:href="#DejaVuSans-Bold-61" transform="translate(3272.179688 0)"/>
    <use xlink:href="#DejaVuSans-Bold-6d" transform="translate(3339.660156 0)"/>
    <use xlink:href="#DejaVuSans-Bold-70" transform="translate(3443.859375 0)"/>
    <use xlink:href="#DejaVuSans-Bold-6c" transform="translate(3515.441406 0)"/>
    <use xlink:href="#DejaVuSans-Bold-65" transform="translate(3549.71875 0)"/>
   </g>
  </g>
 </g>
 <defs>
  <clipPath id="pfd27eb609e">
   <rect x="41.223125" y="68.784" width="321.39" height="237.664"/>
  </clipPath>
  <clipPath id="p1e6885d704">
   <rect x="457.633125" y="68.784" width="321.39" height="237.664"/>
  </clipPath>
 </defs>
</svg>
